<svg width="60" height="60" viewBox="0 0 60 60" fill="none" xmlns="http://www.w3.org/2000/svg">
<circle cx="30" cy="30" r="20" fill="#664E8E"/>
<path d="M20.9724 33.1731C20.8894 33.0907 20.8894 33.0083 20.9724 32.9258C21.1384 32.7609 21.346 32.6991 21.5951 32.7403C21.8441 32.7815 21.9894 32.8228 22.0309 32.864C22.3215 32.9876 22.6432 33.2659 22.9961 33.6987C23.3489 34.1315 23.6291 34.4303 23.8367 34.5952C24.8329 35.4196 25.8499 35.4814 26.8877 34.7807C26.9707 34.4921 27.1057 34.2448 27.2924 34.0387C27.4792 33.8326 27.6557 33.6884 27.8217 33.6059C27.9878 33.5235 28.2784 33.3998 28.6935 33.2349C27.3236 33.1113 26.2132 32.8742 25.3622 32.5239C24.5112 32.1735 23.8366 31.7304 23.3385 31.1946C22.6743 30.4526 22.2696 29.484 22.1243 28.2886C21.979 27.0933 22.0724 26.001 22.4045 25.0117C22.6536 24.3935 23.0064 23.837 23.463 23.3424C23.1309 22.3119 23.1932 21.1372 23.6498 19.8181C24.9782 19.9006 26.182 20.354 27.2613 21.1784C29.3369 20.6425 31.4954 20.6219 33.737 21.1165C34.0276 20.9104 34.4739 20.6528 35.0757 20.3437C35.6777 20.0345 36.4353 19.8593 37.3485 19.8181C37.5145 20.2715 37.6287 20.8074 37.691 21.4257C37.7533 22.0439 37.7221 22.621 37.5976 23.1569C38.5523 24.1461 39.0505 25.4651 39.092 27.1139C39.092 28.4329 38.8637 29.5252 38.4071 30.3908C37.9504 31.2564 37.141 31.9777 35.9787 32.5547C35.1899 32.9258 34.1522 33.1524 32.8653 33.2349C33.4465 33.5234 33.872 33.8222 34.1418 34.1314C34.4117 34.4405 34.5881 34.9248 34.6711 35.5843V37.532L34.7334 39.4177C34.8579 39.6239 35.0032 39.799 35.1693 39.9433C35.3353 40.0876 35.4806 40.1906 35.6051 40.2525C35.7296 40.3143 35.7712 40.4071 35.7296 40.5307C35.6881 40.6544 35.5221 40.7162 35.2315 40.7162C34.5258 40.7162 33.9654 40.4689 33.5503 39.9742C33.4258 39.7681 33.3635 39.5209 33.3635 39.2323V36.2645C33.3635 35.9348 33.2805 35.6977 33.1144 35.5535C32.9484 35.4092 32.7824 35.3165 32.6163 35.2752V39.1704C32.6163 39.8712 32.6993 40.3246 32.8654 40.5307C33.0314 40.7368 33.1352 40.9429 33.1767 41.1489C33.2183 41.1902 33.1871 41.2211 33.0833 41.2417C32.9796 41.2622 32.8031 41.2314 32.554 41.1489C32.0144 41.0253 31.6408 40.747 31.4332 40.3142C31.2257 39.8814 31.1219 39.4177 31.1219 38.9231V35.0898H30.3124V38.9232C30.3124 39.4178 30.2086 39.8919 30.0011 40.3452C29.7105 40.9223 29.1708 41.2314 28.3822 41.2727C28.2576 41.2314 28.1954 41.1902 28.1954 41.149C28.2369 41.1078 28.3614 40.9017 28.569 40.5308C28.6105 40.4483 28.6624 40.2834 28.7246 40.0361C28.7869 39.7888 28.8181 39.5003 28.8181 39.1705V35.2753C28.652 35.3165 28.4963 35.4092 28.351 35.5535C28.2057 35.6978 28.1331 35.9348 28.1331 36.2646V39.2324C28.1331 39.5209 28.0708 39.7682 27.9463 39.9743C27.5727 40.4689 27.0123 40.7163 26.2651 40.7163C25.9745 40.7163 25.8085 40.6544 25.767 40.5308C25.7254 40.4483 25.7358 40.3762 25.7981 40.3144C25.8604 40.2525 25.9538 40.1804 26.0783 40.098C26.2029 40.0155 26.2859 39.9537 26.3274 39.9125C26.4935 39.7888 26.618 39.6239 26.701 39.4178C26.8255 39.253 26.8567 38.8202 26.7944 38.1194C26.7321 37.4187 26.7217 36.9653 26.7632 36.7592C25.6839 37.1302 24.5839 36.9447 23.4631 36.2028C23.131 35.873 22.7989 35.399 22.4668 34.7807C22.2177 34.3273 21.7196 33.7914 20.9724 33.1731Z" fill="white"/>
</svg>
