<svg width="70" height="60" viewBox="0 0 70 60" fill="none" xmlns="http://www.w3.org/2000/svg">
<circle cx="35" cy="30" r="20" fill="#664E8E"/>
<path d="M25.9724 33.1731C25.8894 33.0907 25.8894 33.0083 25.9724 32.9258C26.1384 32.7609 26.346 32.6991 26.5951 32.7403C26.8441 32.7815 26.9894 32.8228 27.0309 32.864C27.3215 32.9876 27.6432 33.2659 27.9961 33.6987C28.3489 34.1315 28.6291 34.4303 28.8367 34.5952C29.8329 35.4196 30.8499 35.4814 31.8877 34.7807C31.9707 34.4921 32.1057 34.2448 32.2924 34.0387C32.4792 33.8326 32.6557 33.6884 32.8217 33.6059C32.9878 33.5235 33.2784 33.3998 33.6935 33.2349C32.3236 33.1113 31.2132 32.8742 30.3622 32.5239C29.5112 32.1735 28.8366 31.7304 28.3385 31.1946C27.6743 30.4526 27.2696 29.484 27.1243 28.2886C26.979 27.0933 27.0724 26.001 27.4045 25.0117C27.6536 24.3935 28.0064 23.837 28.463 23.3424C28.1309 22.3119 28.1932 21.1372 28.6498 19.8181C29.9782 19.9006 31.182 20.354 32.2613 21.1784C34.3369 20.6425 36.4954 20.6219 38.737 21.1165C39.0276 20.9104 39.4739 20.6528 40.0757 20.3437C40.6777 20.0345 41.4353 19.8593 42.3485 19.8181C42.5145 20.2715 42.6287 20.8074 42.691 21.4257C42.7533 22.0439 42.7221 22.621 42.5976 23.1569C43.5523 24.1461 44.0505 25.4651 44.092 27.1139C44.092 28.4329 43.8637 29.5252 43.4071 30.3908C42.9504 31.2564 42.141 31.9777 40.9787 32.5547C40.1899 32.9258 39.1522 33.1524 37.8653 33.2349C38.4465 33.5234 38.872 33.8222 39.1418 34.1314C39.4117 34.4405 39.5881 34.9248 39.6711 35.5843V37.532L39.7334 39.4177C39.8579 39.6239 40.0032 39.799 40.1693 39.9433C40.3353 40.0876 40.4806 40.1906 40.6051 40.2525C40.7296 40.3143 40.7712 40.4071 40.7296 40.5307C40.6881 40.6544 40.5221 40.7162 40.2315 40.7162C39.5258 40.7162 38.9654 40.4689 38.5503 39.9742C38.4258 39.7681 38.3635 39.5209 38.3635 39.2323V36.2645C38.3635 35.9348 38.2805 35.6977 38.1144 35.5535C37.9484 35.4092 37.7824 35.3165 37.6163 35.2752V39.1704C37.6163 39.8712 37.6993 40.3246 37.8654 40.5307C38.0314 40.7368 38.1352 40.9429 38.1767 41.1489C38.2183 41.1902 38.1871 41.2211 38.0833 41.2417C37.9796 41.2622 37.8031 41.2314 37.554 41.1489C37.0144 41.0253 36.6408 40.747 36.4332 40.3142C36.2257 39.8814 36.1219 39.4177 36.1219 38.9231V35.0898H35.3124V38.9232C35.3124 39.4178 35.2086 39.8919 35.0011 40.3452C34.7105 40.9223 34.1708 41.2314 33.3822 41.2727C33.2576 41.2314 33.1954 41.1902 33.1954 41.149C33.2369 41.1078 33.3614 40.9017 33.569 40.5308C33.6105 40.4483 33.6624 40.2834 33.7246 40.0361C33.7869 39.7888 33.8181 39.5003 33.8181 39.1705V35.2753C33.652 35.3165 33.4963 35.4092 33.351 35.5535C33.2057 35.6978 33.1331 35.9348 33.1331 36.2646V39.2324C33.1331 39.5209 33.0708 39.7682 32.9463 39.9743C32.5727 40.4689 32.0123 40.7163 31.2651 40.7163C30.9745 40.7163 30.8085 40.6544 30.767 40.5308C30.7254 40.4483 30.7358 40.3762 30.7981 40.3144C30.8604 40.2525 30.9538 40.1804 31.0783 40.098C31.2029 40.0155 31.2859 39.9537 31.3274 39.9125C31.4935 39.7888 31.618 39.6239 31.701 39.4178C31.8255 39.253 31.8567 38.8202 31.7944 38.1194C31.7321 37.4187 31.7217 36.9653 31.7632 36.7592C30.6839 37.1302 29.5839 36.9447 28.4631 36.2028C28.131 35.873 27.7989 35.399 27.4668 34.7807C27.2177 34.3273 26.7196 33.7914 25.9724 33.1731Z" fill="white"/>
</svg>
