<svg width="60" height="60" viewBox="0 0 60 60" fill="none" xmlns="http://www.w3.org/2000/svg">
<circle cx="30" cy="30" r="30" fill="#664E8E"/>
<path d="M16.4567 34.7598C16.3321 34.6362 16.3321 34.5125 16.4567 34.3888C16.7057 34.1415 17.0171 34.0488 17.3906 34.1106C17.7642 34.1724 17.9822 34.2343 18.0444 34.2961C18.4803 34.4816 18.9629 34.8989 19.4921 35.5482C20.0213 36.1974 20.4417 36.6456 20.7531 36.8929C22.2475 38.1295 23.773 38.2222 25.3296 37.1711C25.4542 36.7383 25.6566 36.3674 25.9367 36.0582C26.2169 35.749 26.4816 35.5327 26.7306 35.409C26.9797 35.2853 27.4156 35.0998 28.0383 34.8525C25.9834 34.667 24.3178 34.3115 23.0413 33.7859C21.7649 33.2604 20.753 32.5958 20.0058 31.792C19.0095 30.6791 18.4024 29.2261 18.1845 27.4331C17.9665 25.6401 18.1066 24.0016 18.6048 22.5177C18.9784 21.5903 19.5077 20.7557 20.1926 20.0137C19.6944 18.468 19.7878 16.7059 20.4728 14.7273C22.4653 14.851 24.271 15.5311 25.89 16.7677C29.0033 15.9639 32.2412 15.933 35.6036 16.6749C36.0394 16.3658 36.7088 15.9794 37.6117 15.5156C38.5145 15.0519 39.6509 14.7891 41.0208 14.7273C41.2699 15.4074 41.4411 16.2112 41.5345 17.1386C41.6279 18.066 41.5812 18.9316 41.3944 19.7354C42.8265 21.2193 43.5737 23.1978 43.636 25.6709C43.636 27.6494 43.2936 29.2879 42.6087 30.5863C41.9237 31.8847 40.7095 32.9667 38.966 33.8322C37.783 34.3887 36.2263 34.7288 34.296 34.8524C35.1678 35.2852 35.806 35.7335 36.2107 36.1972C36.6155 36.6609 36.8801 37.3874 37.0047 38.3766V41.2981L37.0981 44.1267C37.2849 44.4359 37.5029 44.6987 37.7519 44.9151C38.001 45.1315 38.2189 45.2861 38.4057 45.3788C38.5925 45.4716 38.6548 45.6107 38.5925 45.7962C38.5302 45.9817 38.2811 46.0744 37.8453 46.0744C36.7867 46.0744 35.9462 45.7035 35.3235 44.9615C35.1367 44.6523 35.0433 44.2814 35.0433 43.8486V39.3969C35.0433 38.9023 34.9188 38.5467 34.6697 38.3303C34.4206 38.1139 34.1716 37.9748 33.9225 37.913V43.7558C33.9225 44.8069 34.047 45.487 34.2961 45.7961C34.5452 46.1052 34.7008 46.4144 34.7632 46.7235C34.8254 46.7854 34.7787 46.8317 34.623 46.8626C34.4674 46.8935 34.2028 46.8472 33.8291 46.7235C33.0196 46.538 32.4592 46.1207 32.1479 45.4715C31.8366 44.8223 31.6809 44.1267 31.6809 43.3847V37.6348H30.4667V43.3849C30.4667 44.1268 30.311 44.8379 29.9996 45.518C29.5638 46.3836 28.7543 46.8473 27.5713 46.9091C27.3845 46.8473 27.2911 46.7855 27.2911 46.7237C27.3533 46.6618 27.5401 46.3527 27.8515 45.7962C27.9138 45.6726 27.9916 45.4253 28.085 45.0543C28.1785 44.6833 28.2251 44.2505 28.2251 43.7559V37.9131C27.9761 37.9749 27.7425 38.114 27.5246 38.3304C27.3067 38.5469 27.1977 38.9024 27.1977 39.397V43.8486C27.1977 44.2814 27.1043 44.6524 26.9175 44.9616C26.3571 45.7035 25.5165 46.0745 24.3957 46.0745C23.9598 46.0745 23.7108 45.9818 23.6485 45.7963C23.5862 45.6726 23.6018 45.5644 23.6952 45.4717C23.7887 45.3789 23.9288 45.2707 24.1156 45.147C24.3024 45.0234 24.4269 44.9306 24.4892 44.8688C24.7382 44.6833 24.925 44.436 25.0496 44.1269C25.2364 43.8796 25.283 43.2304 25.1896 42.1793C25.0962 41.1282 25.0807 40.4481 25.1429 40.1389C23.5239 40.6954 21.8739 40.4171 20.1927 39.3043C19.6945 38.8096 19.1964 38.0986 18.6982 37.1712C18.3246 36.491 17.5774 35.6872 16.4567 34.7598Z" fill="white"/>
</svg>
