<svg width="70" height="60" viewBox="0 0 70 60" fill="none" xmlns="http://www.w3.org/2000/svg">
<circle cx="35" cy="30" r="20" fill="#FFEDB8"/>
<path d="M25.2096 38.3378H28.8156V29.5802L23.6641 25.7166V36.7924C23.6641 37.6463 24.3557 38.3379 25.2096 38.3379V38.3378Z" fill="#4285F4"/>
<path d="M41.1758 38.3378H44.7818C45.6357 38.3378 46.3273 37.6462 46.3273 36.7923V25.7166L41.1758 29.5802V38.3378Z" fill="#34A853"/>
<path d="M41.1758 22.8831V29.58L46.3273 25.7164V23.6558C46.3273 21.7459 44.147 20.6551 42.6182 21.8013L41.1758 22.8831Z" fill="#FBBC04"/>
<path fill-rule="evenodd" clip-rule="evenodd" d="M28.8203 29.58V22.8831L35.0021 27.5195L41.1839 22.8831V29.58L35.0021 34.2164L28.8203 29.58Z" fill="#EA4335"/>
<path d="M23.6641 23.6558V25.7164L28.8156 29.58V22.8831L27.3732 21.8013C25.8444 20.6551 23.6641 21.7459 23.6641 23.6557V23.6558Z" fill="#C5221F"/>
</svg>
