<svg width="60" height="60" viewBox="0 0 60 60" fill="none" xmlns="http://www.w3.org/2000/svg">
<circle cx="30" cy="30" r="20" fill="#FFDEDE"/>
<path d="M30.3089 37.6162L25.758 37.5334C24.2846 37.5045 22.8075 37.5622 21.3629 37.2631C19.1654 36.8162 19.0097 34.6253 18.8468 32.7874C18.6223 30.2037 18.7092 27.5731 19.1328 25.0109C19.3719 23.5733 20.313 22.7154 21.7684 22.6221C26.6812 22.2833 31.6268 22.3234 36.5288 22.4815C37.0465 22.496 37.5678 22.5752 38.0783 22.6653C40.5981 23.105 40.6596 25.5878 40.8229 27.6779C40.9858 29.7896 40.9171 31.9121 40.6057 34.0094C40.3559 35.7459 39.878 37.2021 37.861 37.3427C35.3339 37.5265 32.8648 37.6745 30.3306 37.6274C30.3307 37.6162 30.3161 37.6162 30.3089 37.6162ZM27.6334 33.2199C29.5378 32.1316 31.4059 31.0613 33.2994 29.9803C31.3914 28.8919 29.5269 27.8217 27.6334 26.7407V33.2199Z" fill="#FF0000"/>
</svg>
