<svg width="60" height="60" viewBox="0 0 60 60" fill="none" xmlns="http://www.w3.org/2000/svg">
<circle cx="30" cy="30" r="30" fill="white"/>
<path d="M15.3182 42.5064H20.7273V29.37L13 23.5745V40.1883C13 41.4691 14.0374 42.5065 15.3182 42.5065V42.5064Z" fill="#4285F4"/>
<path d="M39.2695 42.5063H44.6786C45.9594 42.5063 46.9968 41.4689 46.9968 40.1881V23.5745L39.2695 29.3699V42.5063Z" fill="#34A853"/>
<path d="M39.2695 19.3244V29.3698L46.9968 23.5743V20.4835C46.9968 17.6186 43.7263 15.9824 41.4332 17.7017L39.2695 19.3244Z" fill="#FBBC04"/>
<path fill-rule="evenodd" clip-rule="evenodd" d="M20.7305 29.3699V19.3245L30.0032 26.2791L39.2759 19.3245V29.3699L30.0032 36.3245L20.7305 29.3699Z" fill="#EA4335"/>
<path d="M13 20.4835V23.5744L20.7273 29.3698V19.3244L18.5636 17.7017C16.2705 15.9824 13 17.6186 13 20.4834V20.4835Z" fill="#C5221F"/>
</svg>
