<svg width="60" height="60" viewBox="0 0 60 60" fill="none" xmlns="http://www.w3.org/2000/svg">
<circle cx="30" cy="30" r="20" fill="#F2656B"/>
<path d="M26.1218 29.9999C26.1218 27.8578 27.8579 26.1208 30.0001 26.1208C32.1423 26.1208 33.8794 27.8578 33.8794 29.9999C33.8794 32.142 32.1423 33.879 30.0001 33.879C27.8579 33.879 26.1218 32.142 26.1218 29.9999ZM24.0247 29.9999C24.0247 33.3 26.6999 35.975 30.0001 35.975C33.3004 35.975 35.9755 33.3 35.9755 29.9999C35.9755 26.6998 33.3004 24.0247 30.0001 24.0247C26.6999 24.0247 24.0247 26.6998 24.0247 29.9999ZM34.8156 23.7879C34.8156 24.5586 35.4407 25.1846 36.2124 25.1846C36.9832 25.1846 37.6092 24.5586 37.6092 23.7879C37.6092 23.0171 36.9841 22.3921 36.2124 22.3921C35.4407 22.3921 34.8156 23.0171 34.8156 23.7879ZM25.2984 39.4716C24.1638 39.4199 23.5472 39.231 23.1374 39.0712C22.5941 38.8597 22.2068 38.6078 21.7989 38.2008C21.3919 37.7938 21.139 37.4066 20.9285 36.8633C20.7687 36.4535 20.5797 35.8369 20.528 34.7024C20.4716 33.4758 20.4604 33.1073 20.4604 29.9999C20.4604 26.8925 20.4726 26.525 20.528 25.2974C20.5797 24.1629 20.7696 23.5473 20.9285 23.1365C21.14 22.5932 21.3919 22.206 21.7989 21.798C22.2059 21.391 22.5931 21.1382 23.1374 20.9277C23.5472 20.7679 24.1638 20.5789 25.2984 20.5272C26.525 20.4709 26.8935 20.4596 30.0001 20.4596C33.1077 20.4596 33.4752 20.4718 34.7028 20.5272C35.8373 20.5789 36.453 20.7688 36.8638 20.9277C37.4071 21.1382 37.7944 21.391 38.2023 21.798C38.6093 22.205 38.8612 22.5932 39.0727 23.1365C39.2325 23.5463 39.4214 24.1629 39.4731 25.2974C39.5295 26.525 39.5408 26.8925 39.5408 29.9999C39.5408 33.1064 39.5295 33.4748 39.4731 34.7024C39.4214 35.8369 39.2316 36.4535 39.0727 36.8633C38.8612 37.4066 38.6093 37.7938 38.2023 38.2008C37.7953 38.6078 37.4071 38.8597 36.8638 39.0712C36.454 39.231 35.8373 39.4199 34.7028 39.4716C33.4761 39.528 33.1077 39.5393 30.0001 39.5393C26.8935 39.5393 26.525 39.528 25.2984 39.4716V39.4716ZM25.2025 18.434C23.9636 18.4904 23.1177 18.6869 22.3779 18.9745C21.6128 19.2715 20.9642 19.67 20.3165 20.3167C19.6698 20.9634 19.2713 21.6119 18.9743 22.378C18.6866 23.1177 18.4902 23.9636 18.4338 25.2025C18.3764 26.4432 18.3633 26.8398 18.3633 29.9999C18.3633 33.1599 18.3764 33.5566 18.4338 34.7973C18.4902 36.0361 18.6866 36.8821 18.9743 37.6218C19.2713 38.3869 19.6689 39.0364 20.3165 39.6831C20.9632 40.3297 21.6118 40.7273 22.3779 41.0253C23.1186 41.3129 23.9636 41.5094 25.2025 41.5658C26.4442 41.6222 26.8399 41.6363 30.0001 41.6363C33.1612 41.6363 33.557 41.6231 34.7977 41.5658C36.0366 41.5094 36.8826 41.3129 37.6223 41.0253C38.3875 40.7273 39.0361 40.3297 39.6837 39.6831C40.3304 39.0364 40.728 38.3869 41.026 37.6218C41.3136 36.8821 41.511 36.0361 41.5665 34.7973C41.6229 33.5557 41.636 33.1599 41.636 29.9999C41.636 26.8398 41.6229 26.4432 41.5665 25.2025C41.5101 23.9636 41.3136 23.1177 41.026 22.378C40.728 21.6129 40.3304 20.9643 39.6837 20.3167C39.037 19.67 38.3875 19.2715 37.6233 18.9745C36.8826 18.6869 36.0366 18.4895 34.7987 18.434C33.5579 18.3776 33.1612 18.3635 30.0011 18.3635C26.8399 18.3635 26.4442 18.3767 25.2025 18.434" fill="white"/>
</svg>
