<svg width="60" height="60" viewBox="0 0 60 60" fill="none" xmlns="http://www.w3.org/2000/svg">
<circle cx="30" cy="30" r="30" fill="#F2656B"/>
<path d="M24.1846 30C24.1846 26.7868 26.7888 24.1813 30.0021 24.1813C33.2154 24.1813 35.821 26.7868 35.821 30C35.821 33.2131 33.2154 35.8186 30.0021 35.8186C26.7888 35.8186 24.1846 33.2131 24.1846 30ZM21.039 30C21.039 34.9501 25.0518 38.9627 30.0021 38.9627C34.9525 38.9627 38.9652 34.9501 38.9652 30C38.9652 25.0498 34.9525 21.0372 30.0021 21.0372C25.0518 21.0372 21.039 25.0498 21.039 30ZM37.2253 20.6819C37.2253 21.8381 38.163 22.777 39.3205 22.777C40.4767 22.777 41.4157 21.8381 41.4157 20.6819C41.4157 19.5258 40.4781 18.5882 39.3205 18.5882C38.163 18.5882 37.2253 19.5258 37.2253 20.6819ZM22.9495 44.2075C21.2477 44.13 20.3228 43.8466 19.708 43.6069C18.8931 43.2897 18.3122 42.9118 17.7003 42.3013C17.0898 41.6908 16.7105 41.11 16.3946 40.295C16.155 39.6803 15.8716 38.7554 15.794 37.0537C15.7094 35.2138 15.6925 34.6611 15.6925 30C15.6925 25.3388 15.7108 24.7876 15.794 22.9462C15.8716 21.2445 16.1564 20.321 16.3946 19.7049C16.7119 18.89 17.0898 18.3091 17.7003 17.6972C18.3108 17.0867 18.8917 16.7074 19.708 16.3916C20.3228 16.1519 21.2477 15.8685 22.9495 15.791C24.7895 15.7064 25.3422 15.6895 30.0021 15.6895C34.6634 15.6895 35.2147 15.7078 37.0561 15.791C38.758 15.8685 39.6815 16.1533 40.2976 16.3916C41.1126 16.7074 41.6935 17.0867 42.3054 17.6972C42.9159 18.3077 43.2938 18.89 43.611 19.7049C43.8507 20.3196 44.1341 21.2445 44.2117 22.9462C44.2963 24.7876 44.3132 25.3388 44.3132 30C44.3132 34.6597 44.2963 35.2124 44.2117 37.0537C44.1341 38.7554 43.8493 39.6803 43.611 40.295C43.2938 41.11 42.9159 41.6908 42.3054 42.3013C41.6949 42.9118 41.1126 43.2897 40.2976 43.6069C39.6829 43.8466 38.758 44.13 37.0561 44.2075C35.2161 44.2921 34.6634 44.309 30.0021 44.309C25.3422 44.309 24.7895 44.2921 22.9495 44.2075V44.2075ZM22.8057 12.6512C20.9474 12.7357 19.6784 13.0304 18.5688 13.4618C17.4211 13.9074 16.4482 14.5052 15.4768 15.4752C14.5067 16.4452 13.9089 17.418 13.4633 18.5671C13.0319 19.6767 12.7372 20.9456 12.6526 22.8038C12.5666 24.6649 12.5469 25.2599 12.5469 30C12.5469 34.74 12.5666 35.335 12.6526 37.1961C12.7372 39.0543 13.0319 40.3232 13.4633 41.4328C13.9089 42.5805 14.5053 43.5547 15.4768 44.5247C16.4468 45.4947 17.4197 46.0911 18.5688 46.5381C19.6798 46.9695 20.9474 47.2642 22.8057 47.3488C24.6683 47.4334 25.2619 47.4545 30.0021 47.4545C34.7438 47.4545 35.3374 47.4348 37.1985 47.3488C39.0569 47.2642 40.3258 46.9695 41.4355 46.5381C42.5832 46.0911 43.556 45.4947 44.5275 44.5247C45.4975 43.5547 46.094 42.5805 46.5409 41.4328C46.9724 40.3232 47.2684 39.0543 47.3516 37.1961C47.4362 35.3336 47.456 34.74 47.456 30C47.456 25.2599 47.4362 24.6649 47.3516 22.8038C47.267 20.9456 46.9724 19.6767 46.5409 18.5671C46.094 17.4194 45.4975 16.4466 44.5275 15.4752C43.5574 14.5052 42.5832 13.9074 41.4369 13.4618C40.3258 13.0304 39.0569 12.7343 37.2 12.6512C35.3388 12.5666 34.7438 12.5454 30.0035 12.5454C25.2619 12.5454 24.6683 12.5651 22.8057 12.6512" fill="white"/>
</svg>
