<svg width="70" height="60" viewBox="0 0 70 60" fill="none" xmlns="http://www.w3.org/2000/svg">
<circle cx="35" cy="30" r="20" fill="#F2656B"/>
<path d="M31.1218 29.9999C31.1218 27.8578 32.8579 26.1208 35.0001 26.1208C37.1423 26.1208 38.8794 27.8578 38.8794 29.9999C38.8794 32.142 37.1423 33.879 35.0001 33.879C32.8579 33.879 31.1218 32.142 31.1218 29.9999ZM29.0247 29.9999C29.0247 33.3 31.6999 35.975 35.0001 35.975C38.3004 35.975 40.9755 33.3 40.9755 29.9999C40.9755 26.6998 38.3004 24.0247 35.0001 24.0247C31.6999 24.0247 29.0247 26.6998 29.0247 29.9999ZM39.8156 23.7879C39.8156 24.5586 40.4407 25.1846 41.2124 25.1846C41.9832 25.1846 42.6092 24.5586 42.6092 23.7879C42.6092 23.0171 41.9841 22.3921 41.2124 22.3921C40.4407 22.3921 39.8156 23.0171 39.8156 23.7879ZM30.2984 39.4716C29.1638 39.4199 28.5472 39.231 28.1374 39.0712C27.5941 38.8597 27.2068 38.6078 26.7989 38.2008C26.3919 37.7938 26.139 37.4066 25.9285 36.8633C25.7687 36.4535 25.5797 35.8369 25.528 34.7024C25.4716 33.4758 25.4604 33.1073 25.4604 29.9999C25.4604 26.8925 25.4726 26.525 25.528 25.2974C25.5797 24.1629 25.7696 23.5473 25.9285 23.1365C26.14 22.5932 26.3919 22.206 26.7989 21.798C27.2059 21.391 27.5931 21.1382 28.1374 20.9277C28.5472 20.7679 29.1638 20.5789 30.2984 20.5272C31.525 20.4709 31.8935 20.4596 35.0001 20.4596C38.1077 20.4596 38.4752 20.4718 39.7028 20.5272C40.8373 20.5789 41.453 20.7688 41.8638 20.9277C42.4071 21.1382 42.7944 21.391 43.2023 21.798C43.6093 22.205 43.8612 22.5932 44.0727 23.1365C44.2325 23.5463 44.4214 24.1629 44.4731 25.2974C44.5295 26.525 44.5408 26.8925 44.5408 29.9999C44.5408 33.1064 44.5295 33.4748 44.4731 34.7024C44.4214 35.8369 44.2316 36.4535 44.0727 36.8633C43.8612 37.4066 43.6093 37.7938 43.2023 38.2008C42.7953 38.6078 42.4071 38.8597 41.8638 39.0712C41.454 39.231 40.8373 39.4199 39.7028 39.4716C38.4761 39.528 38.1077 39.5393 35.0001 39.5393C31.8935 39.5393 31.525 39.528 30.2984 39.4716V39.4716ZM30.2025 18.434C28.9636 18.4904 28.1177 18.6869 27.3779 18.9745C26.6128 19.2715 25.9642 19.67 25.3165 20.3167C24.6698 20.9634 24.2713 21.6119 23.9743 22.378C23.6866 23.1177 23.4902 23.9636 23.4338 25.2025C23.3764 26.4432 23.3633 26.8398 23.3633 29.9999C23.3633 33.1599 23.3764 33.5566 23.4338 34.7973C23.4902 36.0361 23.6866 36.8821 23.9743 37.6218C24.2713 38.3869 24.6689 39.0364 25.3165 39.6831C25.9632 40.3297 26.6118 40.7273 27.3779 41.0253C28.1186 41.3129 28.9636 41.5094 30.2025 41.5658C31.4442 41.6222 31.8399 41.6363 35.0001 41.6363C38.1612 41.6363 38.557 41.6231 39.7977 41.5658C41.0366 41.5094 41.8826 41.3129 42.6223 41.0253C43.3875 40.7273 44.0361 40.3297 44.6837 39.6831C45.3304 39.0364 45.728 38.3869 46.026 37.6218C46.3136 36.8821 46.511 36.0361 46.5665 34.7973C46.6229 33.5557 46.636 33.1599 46.636 29.9999C46.636 26.8398 46.6229 26.4432 46.5665 25.2025C46.5101 23.9636 46.3136 23.1177 46.026 22.378C45.728 21.6129 45.3304 20.9643 44.6837 20.3167C44.037 19.67 43.3875 19.2715 42.6233 18.9745C41.8826 18.6869 41.0366 18.4895 39.7987 18.434C38.5579 18.3776 38.1612 18.3635 35.0011 18.3635C31.8399 18.3635 31.4442 18.3767 30.2025 18.434" fill="white"/>
</svg>
