<svg width="70" height="60" viewBox="0 0 70 60" fill="none" xmlns="http://www.w3.org/2000/svg">
<circle cx="35" cy="30" r="20" fill="#1E8CC8"/>
<path d="M26.2709 39.0908H30.0247V26.9695H26.2709V39.0908Z" fill="white"/>
<path d="M25.9102 23.1456C25.9102 24.3807 26.904 25.3822 28.1299 25.3822C29.3558 25.3822 30.3496 24.3808 30.3496 23.1456C30.3496 21.9103 29.3557 20.9089 28.1299 20.9089C26.9041 20.9089 25.9102 21.9103 25.9102 23.1456Z" fill="white"/>
<path d="M40.3563 39.0908H44.0919L44.092 31.4158C44.092 28.1692 42.2511 26.5998 39.6795 26.5998C37.1081 26.5998 36.0251 28.602 36.0251 28.602V26.9695H32.4248V39.0908H36.0251V32.7281C36.0251 31.0235 36.81 30.0089 38.3126 30.0089C39.6931 30.0089 40.3563 30.983 40.3563 32.7281V39.0908Z" fill="white"/>
</svg>
