<svg width="60" height="60" viewBox="0 0 60 60" fill="none" xmlns="http://www.w3.org/2000/svg">
<circle cx="30" cy="30" r="20" fill="#1E8CC8"/>
<path d="M21.2709 39.0908H25.0247V26.9695H21.2709V39.0908Z" fill="white"/>
<path d="M20.9102 23.1456C20.9102 24.3807 21.904 25.3822 23.1299 25.3822C24.3558 25.3822 25.3496 24.3808 25.3496 23.1456C25.3496 21.9103 24.3557 20.9089 23.1299 20.9089C21.9041 20.9089 20.9102 21.9103 20.9102 23.1456Z" fill="white"/>
<path d="M35.3563 39.0908H39.0919L39.092 31.4158C39.092 28.1692 37.2511 26.5998 34.6795 26.5998C32.1081 26.5998 31.0251 28.602 31.0251 28.602V26.9695H27.4248V39.0908H31.0251V32.7281C31.0251 31.0235 31.81 30.0089 33.3126 30.0089C34.6931 30.0089 35.3563 30.983 35.3563 32.7281V39.0908Z" fill="white"/>
</svg>
