<svg width="60" height="60" viewBox="0 0 60 60" fill="none" xmlns="http://www.w3.org/2000/svg">
<circle cx="30" cy="30" r="30" fill="#1E8CC8"/>
<path d="M16.9045 43.6363H22.5351V25.4544H16.9045V43.6363Z" fill="white"/>
<path d="M16.3633 19.7185C16.3633 21.5712 17.854 23.0734 19.6929 23.0734C21.5317 23.0734 23.0225 21.5713 23.0224 19.7185C23.0224 17.8656 21.5316 16.3635 19.6929 16.3635C17.8542 16.3635 16.3633 17.8656 16.3633 19.7185Z" fill="white"/>
<path d="M38.0326 43.6363H43.6359L43.636 32.1238C43.636 27.2539 40.8747 24.8998 37.0174 24.8998C33.1601 24.8998 31.5357 27.9032 31.5357 27.9032V25.4544H26.1352V43.6363H31.5357V34.0923C31.5357 31.5353 32.7131 30.0135 34.9669 30.0135C37.0378 30.0135 38.0326 31.4747 38.0326 34.0923V43.6363Z" fill="white"/>
</svg>
