<svg width="1920" height="553" viewBox="0 0 1920 553" fill="none" xmlns="http://www.w3.org/2000/svg">
<path d="M1003.18 291.478C1004.58 287.861 1005.77 284.054 1006.73 280.134C1014.25 249.365 1007.17 211.62 967.915 201.519C911.634 187.032 880.053 238.038 897.622 277.95C906.255 297.556 915.804 290.252 920.224 300.941" fill="#E23040"/>
<path d="M919.352 297.142C926.207 311.456 888.324 316.973 872.723 296.02C857.123 275.066 876.522 259.077 882.755 270.387C891.19 285.711 878.741 281.533 878.741 285.988C878.741 290.442 900.134 289.104 897.458 275.066C894.79 261.028 868.484 241.862 853.782 267.711C839.079 293.559 874.735 318.518 892.114 322.092C909.493 325.658 902.042 340.758 876.962 338.142L879.19 356.419C899.694 356.419 917.522 343.046 927.779 358.646C938.035 374.247 928.219 369.343 917.971 369.343C907.723 369.343 918.86 392.075 934.91 386.722C950.959 381.378 956.864 361.184 977.662 369.213C1003.52 387.654 1030.87 409.324 1055.7 384.495C1071.75 368.445 1050.48 358.525 1041.44 369.343C1032.4 380.152 1013.35 364.439 1020.93 355.97C1028.51 347.501 1047.45 357.084 1063.72 340.818C1079.99 324.553 1063.94 307.165 1061.04 310.066C1058.14 312.967 1059.41 331.745 1038.76 324.328C1021.37 318.087 1021.96 308.46 1027.62 306.501C1039.2 302.486 1055.1 293.421 1046.63 272.468C1038.16 251.514 1014.04 258.473 1012.01 270.335C1009.53 284.839 1027.58 291.168 1030.68 284.27C1031.6 282.206 1029.61 281.93 1025.16 279.867C1021.76 278.287 1017.81 270.396 1027.62 270.396C1037.42 270.396 1043.41 298.67 1013.8 292.238C1002.11 289.7 1005.26 286.273 1006.33 281.438" fill="#E23040"/>
<path d="M1041.87 265.975C1044.08 269.014 1040.55 268.652 1035.98 266.649C1028.03 263.152 1020.52 265.38 1018.71 269.826C1015.59 277.553 1025.06 283.294 1024.31 284.546C1023.56 285.798 1014.98 286.419 1011.87 274.781C1008.77 263.144 1030.48 250.288 1041.87 265.975Z" fill="#FF7881"/>
<path d="M892.763 265.751C899.074 271.544 901.016 287.222 883.611 285.962C882.014 284.581 892.581 278.9 888.204 268.945C883.827 258.982 890.181 262.419 892.763 265.751Z" fill="#FF7881"/>
<path d="M928.537 287.982C933.959 294.621 931.308 310.17 908.68 311.076C886.052 311.983 868.371 300.751 865.401 285.003C862.431 269.256 877.099 262.039 883.505 268.367C875.036 256.211 853.763 263.498 855.662 289.199C857.562 314.909 904.087 336.959 938.439 315.704C972.792 294.448 928.537 287.982 928.537 287.982Z" fill="#FC5161"/>
<path d="M1013.68 280.298C1013.7 282.905 1017.44 281.999 1016.17 279.305C1014.9 276.612 1013.66 278.977 1013.68 280.298Z" fill="#FFBFBF"/>
<path d="M1010.7 274.039C1010.72 276.154 1013.66 276.672 1013.64 273.823C1013.61 270.974 1010.68 270.845 1010.7 274.039Z" fill="#FFBFBF"/>
<path d="M1011.19 267.711C1010.81 269.766 1013.64 270.793 1014.14 268.013C1014.66 265.233 1011.76 264.594 1011.19 267.711Z" fill="#FFBFBF"/>
<path d="M1013.99 262.41C1012.71 264.223 1015.66 266.744 1017.38 264.309C1019.09 261.875 1015.92 259.682 1013.99 262.41Z" fill="#FFBFBF"/>
<path d="M1018.9 258.456C1016.95 260.07 1019.47 263.575 1022.09 261.4C1024.71 259.224 1021.83 256.021 1018.9 258.456Z" fill="#FFBFBF"/>
<path d="M1026.07 256.608C1023.28 257.057 1023.73 261.417 1027.49 260.813C1031.24 260.2 1030.28 255.935 1026.07 256.608Z" fill="#FFBFBF"/>
<path d="M1033.36 257.929C1030.4 257.558 1029.51 261.892 1033.5 262.392C1037.49 262.893 1037.83 258.49 1033.36 257.929Z" fill="#FFBFBF"/>
<path d="M1040.86 261.098C1037.71 259.82 1035.35 264.197 1039.61 265.915C1043.86 267.633 1045.63 263.023 1040.86 261.098Z" fill="#FFBFBF"/>
<path d="M1047.11 268.626C1044.94 265.803 1040.24 268.281 1043.15 272.088C1046.07 275.895 1050.38 272.891 1047.11 268.626Z" fill="#FFBFBF"/>
<path d="M1050.69 277.233C1050.09 274.427 1045.58 274.592 1046.39 278.364C1047.21 282.137 1051.61 281.464 1050.69 277.233Z" fill="#FFBFBF"/>
<path d="M1050.65 285.254C1051.16 282.724 1047.21 281.274 1046.51 284.684C1045.81 288.094 1049.86 289.07 1050.65 285.254Z" fill="#FFBFBF"/>
<path d="M1049.69 292.713C1050.4 290.572 1047.07 288.923 1046.1 291.807C1045.14 294.699 1048.6 295.951 1049.69 292.713Z" fill="#FFBFBF"/>
<path d="M1069.42 332.53C1084.85 301.761 1051.3 284.011 1037.39 295.199C1023.47 306.388 1041.23 320.02 1043.23 315.427C1045.24 310.843 1031.46 308.132 1043.49 301.605C1053.97 295.933 1062.01 309.255 1056.64 321.566" fill="#E23040"/>
<path d="M1042.57 302.132C1037.59 305.43 1038.94 311.353 1043.79 310.878C1047.33 310.533 1044.95 305.922 1046.37 305.353C1049.84 303.937 1054.52 315.868 1045.37 318.087C1036.22 320.306 1028.73 310.282 1032.43 302.141" fill="#E23040"/>
<path d="M1049.5 311.214C1050.49 306.051 1046.32 304.005 1045.89 308.106C1045.48 311.922 1039.55 313.986 1037.36 307.718C1035.18 301.45 1045.75 292.73 1059.87 298.963C1065.9 301.346 1063.41 297.738 1060.19 295.596C1048.55 288.578 1031.22 293.654 1031.11 306.431C1031 319.2 1047.9 319.623 1049.5 311.214Z" fill="#FF7881"/>
<path d="M1011.23 337.123C1005.58 345.446 1013.24 369.49 1030.66 372.615C1021.63 370.396 1019.56 356.721 1024.61 353.458C1029.66 350.186 1062.04 359.112 1072.28 325.114C1056.54 356.583 1016.88 328.801 1011.23 337.123Z" fill="#FF9B2E"/>
<path d="M1015.96 340.102C1009.39 342.761 1013.94 355.46 1017.46 361.832C1020.98 368.203 1019.8 364.284 1019.3 358.361C1018.8 352.447 1021.12 351.558 1033.67 350.747C1046.23 349.935 1046.51 344.375 1036.8 343.978C1027.08 343.581 1023.31 337.123 1015.96 340.102Z" fill="#F9C55D"/>
<path d="M959.609 341.751C967.638 333.92 977.921 351.938 1000.35 369.991C1025.16 389.942 1052.09 386.454 1054.32 369.067C1036.49 390.02 1000.35 365.743 1007.88 330.881C1016.87 325.995 1039.33 346.516 1058.55 330.622C1069.5 321.557 1067.09 303.073 1052.64 300.613C1057.92 302.253 1061.79 312.026 1058.15 320.677C1054.52 329.327 1041.78 330.406 1027.36 319.459C1021.29 314.849 1020.23 306.993 1029.67 302.141C1041.69 295.959 1045.02 280.92 1035.18 274.246C1043.63 293.222 1021.42 298.679 1008.82 293.197C996.223 287.714 1002.32 283.199 1005.03 272.088C1006.96 265.164 1007.39 259.431 996.949 247.491C974.942 222.325 921.268 221.842 917.72 253.82C914.595 281.904 949.491 285.996 929.695 315.307C916.814 334.386 885.008 349.029 860.438 333.514C872.999 357.299 897.44 353.578 923.375 342.744C933.364 338.574 942.17 364.379 931.162 376.207C948.239 369.326 952.642 348.545 959.609 341.751Z" fill="#FC5161"/>
<path d="M1032.54 327.437C1020.11 323.267 1015.27 333.247 1024.99 336.156C1034.68 339.057 1041.26 330.363 1032.54 327.437Z" fill="#E23040"/>
<path d="M1032.43 307.001C1033.68 309.513 1036.52 307.364 1034.42 304.359C1032.85 302.123 1031.62 305.378 1032.43 307.001Z" fill="#FFBFBF"/>
<path d="M1033.53 298.679C1032.2 301.26 1035.03 303.159 1036.82 299.689C1038.6 296.209 1035.53 294.776 1033.53 298.679Z" fill="#FFBFBF"/>
<path d="M1039.18 292.842C1036.74 294.414 1038.07 297.573 1041.37 295.45C1044.66 293.334 1042.87 290.468 1039.18 292.842Z" fill="#FFBFBF"/>
<path d="M1046.75 291.004C1043.81 291.642 1043.69 296.253 1047.66 295.398C1051.63 294.552 1051.21 290.054 1046.75 291.004Z" fill="#FFBFBF"/>
<path d="M1054.75 291.202C1051.44 291.133 1049.96 296.287 1054.41 296.391C1058.87 296.486 1059.75 291.314 1054.75 291.202Z" fill="#FFBFBF"/>
<path d="M1063.06 294.854C1060.23 293.067 1056.12 297.358 1059.92 299.775C1063.72 302.201 1067.32 297.574 1063.06 294.854Z" fill="#FFBFBF"/>
<path d="M1068.96 300.82C1066.83 298.152 1061.6 301.364 1064.47 304.972C1067.33 308.572 1072.17 304.86 1068.96 300.82Z" fill="#FFBFBF"/>
<path d="M1073.14 309.557C1071.78 305.905 1065.27 308.02 1067.09 312.932C1068.92 317.862 1075.18 315.073 1073.14 309.557Z" fill="#FFBFBF"/>
<path d="M1074.23 321.35C1074.8 316.99 1068.76 315.609 1067.3 321.367C1065.85 327.117 1073.37 327.946 1074.23 321.35Z" fill="#FFBFBF"/>
<path d="M1068.14 333.186C1070.52 330.173 1066.54 326.746 1063.33 330.812C1060.13 334.878 1064.54 337.736 1068.14 333.186Z" fill="#FFBFBF"/>
<path d="M1057.8 338.927C1060.85 337.045 1058.99 332.599 1054.89 335.137C1050.79 337.676 1053.2 341.776 1057.8 338.927Z" fill="#FFBFBF"/>
<path d="M1046.48 340.81C1049.57 341.371 1051.11 337.382 1046.95 336.631C1042.78 335.88 1041.81 339.964 1046.48 340.81Z" fill="#FFBFBF"/>
<path d="M1036.33 339.316C1038.57 340.274 1040.65 337.511 1037.63 336.216C1034.61 334.921 1032.95 337.865 1036.33 339.316Z" fill="#FFBFBF"/>
<path d="M1028.59 336.242C1030.64 336.337 1031.46 333.532 1028.69 333.402C1025.92 333.273 1025.48 336.104 1028.59 336.242Z" fill="#FFBFBF"/>
<path d="M1041.43 369.343C1052.8 357.973 1048.27 339.264 1034.3 342.156C1024.61 344.159 1033.41 352.404 1029.17 356.643C1024.94 360.873 1011.11 337.935 1031.5 331.546C1051.89 325.157 1077.52 344.012 1059.7 379.409" fill="#E23040"/>
<path d="M1046.43 375.075C1054.84 370.75 1058.14 355.322 1052.92 343.477C1047.7 331.624 1031.82 335.155 1028.28 341.164C1024.74 347.172 1026.45 351.774 1023.96 351.67C1021.48 351.567 1019.01 337.115 1032.33 332.245C1045.65 327.376 1063.49 336.389 1064.12 353.19C1064.75 369.999 1051.25 389.208 1027.77 383.053" fill="#FC5161"/>
<path d="M1000.4 291.979C1008.9 277.665 1015.38 236.838 991.884 215.729C967.477 193.818 928.67 201.467 913.087 225.079C884.372 268.609 936.38 281.654 938.417 305.758" fill="#FC5161"/>
<path d="M966.836 206.949C1006.92 207.95 1027.56 277.527 976.324 287.187C921.848 297.461 898.02 205.222 966.836 206.949Z" fill="#FF7176"/>
<path d="M851.711 288.604C860.198 302.469 878.759 319.468 896.976 320.927C915.192 322.395 908.104 336.268 885.381 338.625C888.515 331.183 854.594 322.239 851.711 288.604Z" fill="#FF9B2E"/>
<path d="M861.37 307.122C868.743 314.037 881.71 321.005 889.877 323.707C897.431 326.21 892.415 334.248 884.291 331.304C876.167 328.36 865.799 318.924 860.947 311.905C856.086 304.886 857.977 303.945 861.37 307.122Z" fill="#F9C55D"/>
<path d="M919.634 346.706C928.846 349.823 934.441 364.681 926.213 368.73C926.575 363.386 921.819 350.177 905.199 353.198C914.705 346.516 919.634 346.706 919.634 346.706Z" fill="#FF9B2E"/>
<path d="M1037.99 394.837C1020.74 393.879 1006.48 385.254 988.654 367.426C970.826 349.598 961.761 344.997 950.028 363.567C938.295 382.137 924.965 389.856 906.887 382.802C918.991 394.906 937.026 398.092 957.755 376.042C968.831 364.266 979.442 372.477 992.513 381.395C1005.58 390.313 1028.49 398.653 1037.99 394.837Z" fill="#FF9B2E"/>
<path d="M930.152 362.531C930.152 365.795 925.982 371.726 916.114 366.503C906.246 361.271 912.963 346.188 923.392 349.011C928.589 350.419 930.756 349.478 928.296 345.782C922.278 336.761 903.777 333.195 895.679 355.089C886.389 380.204 925.395 403.264 943.482 372.624" fill="#E23040"/>
<path d="M904.311 378.9C883.116 361.573 905.64 324.829 925.877 344.574C912.728 339.368 898.397 352.568 906.927 366.218C912.107 374.506 936.531 377.855 936.107 358.793C942.211 349.762 950.258 346.672 948.773 357.696C946.398 375.3 923.693 394.742 904.311 378.9Z" fill="#FC5161"/>
<path d="M876.965 338.142C851.557 334.576 857.264 322.869 861.813 321.203C870.188 318.138 867.201 329.612 872.778 326.28C880.427 321.704 865.18 300.846 852.006 318.078C841.421 331.909 858.351 358.957 882.87 356.272" fill="#E23040"/>
<path d="M965.128 358.957C977.215 356.6 988.205 371.372 993.221 375.697C998.237 380.022 997.072 381.87 989.207 377.355C981.351 372.839 974.996 366.934 965.793 369.386C956.599 371.838 949.364 385.246 944.538 384.9C939.712 384.546 952.247 361.469 965.128 358.957Z" fill="#F9C55D"/>
<path d="M870.536 318.665C864.346 312.112 855.98 317.638 853.977 322.904C851.137 330.372 854.573 336.64 851.051 336.389C847.519 336.139 846.509 320.979 853.477 315.876C860.452 310.774 870.752 310.567 870.536 318.665Z" fill="#FF7881"/>
<path d="M1028.91 329.854C1024.61 330.933 1026.46 335.647 1030.66 333.713C1034.88 331.788 1030.95 329.345 1028.91 329.854Z" fill="#FFBFBF"/>
<path d="M1021.66 337.9C1020.05 340.905 1023.69 342.303 1024.77 338.902C1025.86 335.5 1022.43 336.476 1021.66 337.9Z" fill="#FFBFBF"/>
<path d="M1038.14 327.437C1034.78 327.437 1034.15 331.978 1038.69 331.978C1043.24 331.978 1043.24 327.437 1038.14 327.437Z" fill="#FFBFBF"/>
<path d="M1047.34 329.327C1044.02 328.723 1042.59 333.083 1047.06 333.894C1051.53 334.714 1052.35 330.242 1047.34 329.327Z" fill="#FFBFBF"/>
<path d="M1056.95 333.627C1053.97 331.632 1050.15 336.156 1054.15 338.841C1058.17 341.544 1061.45 336.648 1056.95 333.627Z" fill="#FFBFBF"/>
<path d="M1063.44 341.284C1060.73 338.263 1055.31 342.113 1058.97 346.188C1062.63 350.255 1067.54 345.852 1063.44 341.284Z" fill="#FFBFBF"/>
<path d="M1067.33 352.378C1066.41 348.062 1059.49 348.692 1060.73 354.511C1061.95 360.33 1068.7 358.905 1067.33 352.378Z" fill="#FFBFBF"/>
<path d="M1068.07 364.137C1068.45 359.561 1061.48 358.12 1060.96 364.292C1060.44 370.474 1067.5 371.061 1068.07 364.137Z" fill="#FFBFBF"/>
<path d="M1064.39 376.5C1066.2 371.631 1059.04 367.936 1056.59 374.506C1054.15 381.067 1061.64 383.856 1064.39 376.5Z" fill="#FFBFBF"/>
<path d="M1055.4 388.915C1059.75 385.6 1055.46 378.279 1049.59 382.751C1043.72 387.206 1048.82 393.914 1055.4 388.915Z" fill="#FFBFBF"/>
<path d="M1040.74 395.338C1045.17 394.431 1044.6 387.456 1038.63 388.664C1032.66 389.882 1034.05 396.702 1040.74 395.338Z" fill="#FFBFBF"/>
<path d="M1027.21 396.02C1031.28 396.849 1033.31 390.736 1027.83 389.614C1022.33 388.5 1021.05 394.768 1027.21 396.02Z" fill="#FFBFBF"/>
<path d="M1015.15 392.221C1018.62 393.361 1021.02 388.224 1016.33 386.688C1011.65 385.159 1009.9 390.503 1015.15 392.221Z" fill="#FFBFBF"/>
<path d="M1004.71 385.98C1007.18 387.465 1009.93 383.942 1006.6 381.939C1003.27 379.936 1000.98 383.735 1004.71 385.98Z" fill="#FFBFBF"/>
<path d="M995.31 378.796C997.399 380.048 999.722 377.07 996.907 375.386C994.093 373.686 992.159 376.897 995.31 378.796Z" fill="#FFBFBF"/>
<path d="M896.043 270.707C897.977 273.392 893.661 275.127 892.884 271.466C892.115 267.806 895.077 269.351 896.043 270.707Z" fill="#FFBFBF"/>
<path d="M892.981 263.8C894.535 265.967 892.066 268.6 889.959 265.673C887.861 262.747 890.624 260.519 892.981 263.8Z" fill="#FFBFBF"/>
<path d="M887.582 258.801C889.481 260.64 887.495 263.696 884.931 261.218C882.359 258.741 884.698 256.03 887.582 258.801Z" fill="#FFBFBF"/>
<path d="M880.512 254.726C883.102 255.667 882.127 260.346 878.63 259.077C875.134 257.808 876.593 253.301 880.512 254.726Z" fill="#FFBFBF"/>
<path d="M872.865 254.286C875.956 254.553 876.12 259.923 871.95 259.561C867.78 259.207 868.186 253.889 872.865 254.286Z" fill="#FFBFBF"/>
<path d="M864.317 255.995C867.364 254.476 870.187 259.233 866.078 261.296C861.96 263.351 859.706 258.3 864.317 255.995Z" fill="#FFBFBF"/>
<path d="M856.813 262.496C859.42 260.018 863.53 263.8 860.007 267.15C856.494 270.508 852.876 266.252 856.813 262.496Z" fill="#FFBFBF"/>
<path d="M850.994 270.922C853.117 267.374 858.677 270.171 855.811 274.963C852.953 279.737 847.791 276.284 850.994 270.922Z" fill="#FFBFBF"/>
<path d="M848.422 283.588C848.422 279.159 854.862 278.339 854.862 284.304C854.862 290.278 848.422 290.278 848.422 283.588Z" fill="#FFBFBF"/>
<path d="M851.363 294.474C849.861 291.176 854.376 288.129 856.396 292.566C858.416 297.004 853.625 299.447 851.363 294.474Z" fill="#FFBFBF"/>
<path d="M856.322 304.402C853.93 302.184 856.71 297.884 859.93 300.871C863.151 303.858 859.93 307.744 856.322 304.402Z" fill="#FFBFBF"/>
<path d="M864.762 310.299C862.466 308.624 864.486 304.567 867.577 306.829C870.676 309.099 868.233 312.838 864.762 310.299Z" fill="#FFBFBF"/>
<path d="M874.002 315.134C871.964 314.271 872.836 310.783 875.59 311.94C878.344 313.105 877.092 316.438 874.002 315.134Z" fill="#FFBFBF"/>
<path d="M882.661 318.846C880.934 318.121 881.668 315.169 883.999 316.144C886.33 317.128 885.277 319.943 882.661 318.846Z" fill="#FFBFBF"/>
<path d="M857.01 329.275C858.184 335.759 875.537 341.198 891 339.48C897.941 340.015 901.955 350.514 888.41 351.032C874.864 351.558 856.785 344.125 857.01 329.275Z" fill="#FC5161"/>
<path d="M872.145 315.315C874.805 315.919 873.087 319.33 870.617 317.499C868.148 315.678 870.807 315.013 872.145 315.315Z" fill="#FFBFBF"/>
<path d="M867.084 311.093C869.225 311.585 869.13 314.547 866.247 313.891C863.355 313.234 863.847 310.359 867.084 311.093Z" fill="#FFBFBF"/>
<path d="M860.456 310.774C862.623 310.869 863.072 313.83 860.137 313.709C857.201 313.58 857.167 310.636 860.456 310.774Z" fill="#FFBFBF"/>
<path d="M854.461 312.88C856.568 312.052 858.519 315.462 855.67 316.584C852.829 317.707 851.284 314.141 854.461 312.88Z" fill="#FFBFBF"/>
<path d="M849.542 317.396C851.597 315.876 854.619 319.097 851.856 321.143C849.093 323.197 846.443 319.692 849.542 317.396Z" fill="#FFBFBF"/>
<path d="M846.357 324.242C847.402 321.643 851.736 323.042 850.32 326.547C848.913 330.052 844.769 328.17 846.357 324.242Z" fill="#FFBFBF"/>
<path d="M846.624 331.097C846.874 328.144 851.467 328.248 851.122 332.219C850.785 336.199 846.244 335.552 846.624 331.097Z" fill="#FFBFBF"/>
<path d="M848.444 338.625C847.823 335.284 852.77 333.981 853.607 338.487C854.462 342.994 849.394 343.676 848.444 338.625Z" fill="#FFBFBF"/>
<path d="M853.937 346.654C851.528 343.935 855.051 339.92 858.297 343.598C861.543 347.267 857.58 350.781 853.937 346.654Z" fill="#FFBFBF"/>
<path d="M861.561 352.456C858.842 351.247 859.955 346.913 863.616 348.545C867.276 350.177 865.662 354.286 861.561 352.456Z" fill="#FFBFBF"/>
<path d="M870.134 356.056C867.458 355.996 866.828 351.834 870.428 351.912C874.037 351.998 874.175 356.151 870.134 356.056Z" fill="#FFBFBF"/>
<path d="M877.952 357.083C875.621 357.299 874.654 353.708 877.797 353.414C880.939 353.121 881.475 356.747 877.952 357.083Z" fill="#FFBFBF"/>
<path d="M886.097 355.849C884.37 356.427 883.006 353.803 885.337 353.017C887.668 352.232 888.713 354.968 886.097 355.849Z" fill="#FFBFBF"/>
<path d="M893.031 355.21C891.563 355.702 890.415 353.483 892.383 352.819C894.352 352.145 895.232 354.459 893.031 355.21Z" fill="#FFBFBF"/>
<path d="M927.672 342.89C929.597 345.463 925.98 347.302 923.986 343.615C922.492 340.87 926.429 341.232 927.672 342.89Z" fill="#FFBFBF"/>
<path d="M920.052 337.434C923.177 338.478 922.573 342.381 918.351 340.965C914.13 339.566 915.321 335.854 920.052 337.434Z" fill="#FFBFBF"/>
<path d="M910.733 336.165C914.152 335.914 915.706 340.974 911.096 341.31C906.485 341.656 905.562 336.545 910.733 336.165Z" fill="#FFBFBF"/>
<path d="M900.985 339.825C904.016 337.581 908.747 341.474 904.663 344.505C900.58 347.535 896.401 343.227 900.985 339.825Z" fill="#FFBFBF"/>
<path d="M894.391 348.787C895.85 345.23 902.481 346.568 900.512 351.368C898.544 356.16 892.19 354.165 894.391 348.787Z" fill="#FFBFBF"/>
<path d="M892.104 358.681C892.345 354.752 899.295 354.347 898.976 359.639C898.648 364.94 891.741 364.62 892.104 358.681Z" fill="#FFBFBF"/>
<path d="M894.039 369.602C892.925 365.259 900.359 362.954 901.852 368.808C903.346 374.67 895.714 376.163 894.039 369.602Z" fill="#FFBFBF"/>
<path d="M901.091 381.17C897.309 377.855 902.446 372.14 907.54 376.612C912.633 381.093 906.797 386.186 901.091 381.17Z" fill="#FFBFBF"/>
<path d="M914.446 388.336C910.276 387.05 911.753 381.196 917.373 382.923C922.993 384.65 920.749 390.27 914.446 388.336Z" fill="#FFBFBF"/>
<path d="M927.789 386.946C923.731 387.179 922.574 381.758 928.048 381.447C933.513 381.127 933.918 386.601 927.789 386.946Z" fill="#FFBFBF"/>
<path d="M939.554 381.257C937.041 383.821 933.027 381.067 936.403 377.614C939.787 374.143 943.344 377.372 939.554 381.257Z" fill="#FFBFBF"/>
<path d="M948.031 373.141C946.581 375.524 942.842 374.281 944.802 371.069C946.762 367.858 950.224 369.541 948.031 373.141Z" fill="#FFBFBF"/>
<path d="M953.234 365.13C951.387 366.572 948.797 364.456 951.292 362.514C953.787 360.563 956.032 362.946 953.234 365.13Z" fill="#FFBFBF"/>
<path d="M925.876 353.199C929.476 357.412 927.534 364.033 922.414 358.24C917.294 352.439 922.276 348.985 925.876 353.199Z" fill="#F9C55D"/>
<path d="M916.597 229.75C925.999 231.26 918.851 247.224 910.804 247.224C900.772 247.224 903.777 227.695 916.597 229.75Z" fill="#E23040"/>
<path d="M915.785 262.082C920.145 258.473 923.227 269.101 919.152 270.629C915.086 272.165 911.158 265.906 915.785 262.082Z" fill="#E23040"/>
<path d="M923.693 215.798C928.796 217.758 924.513 225.027 919.523 223.715C914.965 222.523 918.297 213.726 923.693 215.798Z" fill="#E23040"/>
<path d="M919.311 250.384C923.74 249.909 923.326 256.885 919.311 256.72C915.296 256.556 913.794 250.979 919.311 250.384Z" fill="#E23040"/>
<path d="M990.785 351.066C1000.71 355.452 994.817 369.395 986.572 361.797C978.336 354.191 979.156 345.921 990.785 351.066Z" fill="#E23040"/>
<path d="M1003.05 365.613C1009.96 365.423 1007.68 374.506 1002.8 371.881C997.926 369.239 998.418 365.734 1003.05 365.613Z" fill="#E23040"/>
<path d="M980.597 340.887C984.206 340.991 985.708 347.103 981.107 347.017C976.505 346.939 977.67 340.81 980.597 340.887Z" fill="#E23040"/>
<path d="M912.785 317.517C918.94 316.774 923.015 323.931 913.968 325.641C904.928 327.359 904.255 318.553 912.785 317.517Z" fill="#E23040"/>
<path d="M900.875 314.771C904.147 315.367 904.855 319.433 900.875 319.381C896.895 319.33 895.16 313.727 900.875 314.771Z" fill="#E23040"/>
<path d="M1015.06 323.008C1018.73 321.609 1019.28 327.35 1015.78 327.436C1012.28 327.523 1011.99 324.182 1015.06 323.008Z" fill="#E23040"/>
<path d="M1022.77 293.455C1027.74 292.756 1029.43 300.103 1021.97 301.536C1014.52 302.978 1016.43 294.353 1022.77 293.455Z" fill="#E23040"/>
<path d="M1011.07 295.13C1013.93 295.329 1013.21 299.067 1011.07 299.067C1008.75 299.076 1007.14 294.854 1011.07 295.13Z" fill="#E23040"/>
<path d="M949.607 269.161C939.359 275.135 950.177 287.533 956.729 281.723C962.902 276.258 957.135 264.767 949.607 269.161Z" fill="#0A101B"/>
<path d="M953.18 276.871C953.111 274.799 958.11 275.602 957.972 276.974C957.514 281.671 953.336 281.49 953.18 276.871Z" fill="#2A6589"/>
<path d="M949.795 276.292C948.129 276.361 947.792 279.366 949.864 279.219C951.936 279.064 951.461 276.215 949.795 276.292Z" fill="#FFDBCC"/>
<path d="M993.747 262.151C1004.94 259.768 1006.39 275.705 997.485 276.482C990.388 277.095 989.085 263.705 993.747 262.151Z" fill="#0A101B"/>
<path d="M997.598 270.776C997.589 269.653 1002.82 269.852 1002.6 271.199C1001.86 275.559 997.615 275.248 997.598 270.776Z" fill="#2A6589"/>
<path d="M993.563 268.842C994.806 267.901 996.162 270.085 994.591 271.207C993.019 272.33 992.32 269.783 993.563 268.842Z" fill="#FFDBCC"/>
<path d="M967.457 283.009C973.898 283.803 983.273 282.862 987.495 279.806C986.338 288.008 980.916 294.88 977.549 295.389C970.038 296.529 967.457 283.009 967.457 283.009Z" fill="#7A0000"/>
<path d="M969.261 283.976C967.854 284.658 970.332 290.839 971.877 291.677C973.923 292.782 978.499 287.179 977.48 285.469C976.392 283.656 970.867 283.199 969.261 283.976Z" fill="#3F0000"/>
<path d="M1070.69 310.265C1068.23 310.299 1068.77 313.157 1070.89 313.062C1073.02 312.975 1072.4 310.239 1070.69 310.265Z" fill="#FF8F8F"/>
<path d="M1070.94 320.366C1068.47 320.4 1069.01 323.258 1071.13 323.163C1073.25 323.077 1072.64 320.34 1070.94 320.366Z" fill="#FF8F8F"/>
<path d="M1066.57 331.684C1065.25 330.078 1063.3 332.211 1064.48 333.558C1065.66 334.904 1067.48 332.798 1066.57 331.684Z" fill="#FF8F8F"/>
<path d="M1067.17 301.726C1064.71 301.761 1065.24 304.618 1067.36 304.523C1069.49 304.428 1068.88 301.7 1067.17 301.726Z" fill="#FF8F8F"/>
<path d="M1061.73 296.279C1059.6 296.313 1060.06 298.774 1061.9 298.696C1063.73 298.618 1063.2 296.253 1061.73 296.279Z" fill="#FF8F8F"/>
<path d="M1054.62 292.195C1052.99 292.221 1053.34 294.112 1054.75 294.051C1056.16 293.991 1055.75 292.178 1054.62 292.195Z" fill="#FF8F8F"/>
<path d="M1047.34 291.945C1045.71 291.971 1046.06 293.861 1047.47 293.801C1048.88 293.74 1048.47 291.927 1047.34 291.945Z" fill="#FF8F8F"/>
<path d="M1039.53 293.274C1038.44 294.042 1039.55 295.156 1040.47 294.465C1041.38 293.775 1040.28 292.739 1039.53 293.274Z" fill="#FF8F8F"/>
<path d="M1034.54 298.42C1033.45 299.188 1034.45 300.138 1035.38 299.456C1036.3 298.774 1035.3 297.893 1034.54 298.42Z" fill="#FF8F8F"/>
<path d="M1032.87 306.38C1033.36 307.623 1034.52 306.872 1034.07 305.818C1033.63 304.757 1032.54 305.525 1032.87 306.38Z" fill="#FF8F8F"/>
<path d="M1062.58 343.175C1062.39 342.968 1062.09 342.795 1061.8 342.804C1061.48 342.804 1061.15 342.856 1060.91 343.097C1060.76 343.253 1060.65 343.374 1060.58 343.589C1060.55 343.693 1060.52 343.831 1060.52 343.943C1060.52 344.246 1060.6 344.522 1060.81 344.755C1061.01 344.979 1061.28 345.109 1061.59 345.126C1061.88 345.143 1062.17 345.04 1062.4 344.841C1062.42 344.815 1062.46 344.789 1062.48 344.755C1062.71 344.556 1062.84 344.28 1062.85 343.978C1062.87 343.676 1062.78 343.399 1062.58 343.175Z" fill="#FF8F8F"/>
<path d="M1064.54 352.258C1063.01 352.258 1062.87 354.632 1064.4 354.632C1065.93 354.64 1066.08 352.258 1064.54 352.258Z" fill="#FF8F8F"/>
<path d="M1064.91 363.265C1063.12 363.265 1062.95 366.036 1064.74 366.036C1066.53 366.036 1066.7 363.265 1064.91 363.265Z" fill="#FF8F8F"/>
<path d="M1060.51 374.791C1059.65 374.791 1058.89 375.378 1058.83 376.284C1058.78 377.113 1059.46 377.959 1060.33 377.959C1061.19 377.959 1061.95 377.372 1062 376.466C1062.05 375.645 1061.37 374.791 1060.51 374.791Z" fill="#FF8F8F"/>
<path d="M1054.22 386.316C1054.15 386.005 1054.02 385.738 1053.81 385.505C1053.5 385.151 1053.05 384.935 1052.58 384.909C1052.11 384.883 1051.64 385.047 1051.29 385.358C1050.95 385.66 1050.69 386.126 1050.69 386.584V386.67C1050.7 386.826 1050.72 386.99 1050.73 387.145C1050.79 387.456 1050.93 387.723 1051.14 387.957C1051.45 388.311 1051.9 388.526 1052.37 388.552C1052.84 388.578 1053.31 388.414 1053.66 388.103C1054 387.801 1054.26 387.335 1054.26 386.877V386.791C1054.25 386.636 1054.24 386.48 1054.22 386.316Z" fill="#FF8F8F"/>
<path d="M1039.08 391.367C1038.22 391.367 1037.46 391.954 1037.41 392.86C1037.35 393.689 1038.03 394.535 1038.9 394.535C1039.76 394.535 1040.52 393.948 1040.57 393.042C1040.63 392.221 1039.95 391.367 1039.08 391.367Z" fill="#FF8F8F"/>
<path d="M1026.99 391.833C1025.2 391.833 1025.03 394.604 1026.83 394.604C1028.61 394.604 1028.78 391.833 1026.99 391.833Z" fill="#FF8F8F"/>
<path d="M1015.34 388.345C1013.73 388.345 1013.57 390.857 1015.2 390.857C1016.8 390.857 1016.97 388.345 1015.34 388.345Z" fill="#FF8F8F"/>
<path d="M1006.06 383.122C1005.86 382.897 1005.58 382.768 1005.28 382.751C1004.99 382.733 1004.69 382.837 1004.47 383.036C1004.26 383.225 1004.1 383.519 1004.1 383.813V383.899C1004.1 384.201 1004.18 384.477 1004.38 384.71C1004.58 384.935 1004.86 385.064 1005.16 385.082C1005.45 385.099 1005.75 384.995 1005.97 384.797C1006.18 384.607 1006.34 384.313 1006.34 384.02V383.933C1006.34 383.631 1006.26 383.355 1006.06 383.122Z" fill="#FF8F8F"/>
<path d="M1049.67 284.891C1049.54 284.744 1049.36 284.658 1049.17 284.649C1048.79 284.624 1048.4 284.934 1048.4 285.331V285.418C1048.4 285.616 1048.45 285.798 1048.58 285.944C1048.71 286.091 1048.89 286.178 1049.08 286.186C1049.46 286.212 1049.85 285.901 1049.85 285.504V285.418C1049.85 285.219 1049.8 285.047 1049.67 284.891Z" fill="#FF8F8F"/>
<path d="M1049.1 277.069C1047.82 277.069 1047.7 279.046 1048.99 279.046C1050.26 279.046 1050.38 277.069 1049.1 277.069Z" fill="#FF8F8F"/>
<path d="M1046.67 269.507C1046.47 269.282 1046.15 269.109 1045.85 269.109H1045.76C1045.66 269.118 1045.55 269.127 1045.44 269.135C1045.24 269.178 1045.05 269.273 1044.9 269.412C1044.67 269.619 1044.52 269.921 1044.5 270.232C1044.48 270.543 1044.59 270.853 1044.8 271.095C1045 271.32 1045.32 271.492 1045.62 271.492H1045.71C1045.81 271.484 1045.93 271.475 1046.03 271.466C1046.24 271.423 1046.42 271.328 1046.57 271.19C1046.81 270.983 1046.95 270.681 1046.97 270.37C1046.99 270.05 1046.88 269.74 1046.67 269.507Z" fill="#FF8F8F"/>
<path d="M1041.81 262.721C1041.77 262.505 1041.66 262.315 1041.52 262.151C1041.29 261.9 1040.98 261.754 1040.65 261.728C1040.33 261.711 1039.99 261.823 1039.75 262.047C1039.51 262.254 1039.32 262.591 1039.32 262.911V262.997C1039.33 263.109 1039.34 263.221 1039.35 263.334C1039.39 263.549 1039.5 263.739 1039.64 263.903C1039.87 264.154 1040.18 264.301 1040.51 264.326C1040.84 264.344 1041.17 264.231 1041.41 264.007C1041.65 263.8 1041.84 263.463 1041.84 263.144V263.057L1041.81 262.721Z" fill="#FF8F8F"/>
<path d="M1033.77 258.62C1032.24 258.62 1032.1 260.994 1033.63 260.994C1035.16 260.994 1035.31 258.62 1033.77 258.62Z" fill="#FF8F8F"/>
<path d="M1026.88 257.489C1025.6 257.489 1025.48 259.466 1026.77 259.466C1028.04 259.474 1028.16 257.489 1026.88 257.489Z" fill="#FF8F8F"/>
<path d="M1021.34 258.922C1021.19 258.749 1020.94 258.611 1020.7 258.611H1020.62C1020.36 258.611 1020.14 258.672 1019.94 258.844C1019.76 259.008 1019.65 259.242 1019.63 259.483C1019.61 259.725 1019.7 259.967 1019.86 260.157C1020.02 260.329 1020.26 260.468 1020.5 260.468H1020.59C1020.84 260.468 1021.06 260.407 1021.26 260.234C1021.44 260.07 1021.56 259.837 1021.57 259.596C1021.59 259.354 1021.5 259.112 1021.34 258.922Z" fill="#FF8F8F"/>
<path d="M1015.41 262.229C1014.22 262.229 1014.11 264.076 1015.3 264.076C1016.49 264.085 1016.6 262.229 1015.41 262.229Z" fill="#FF8F8F"/>
<path d="M1012.67 267.063C1011.57 267.063 1011.46 268.781 1012.57 268.781C1013.68 268.773 1013.79 267.063 1012.67 267.063Z" fill="#FF8F8F"/>
<path d="M1011.95 273.607C1011.11 273.607 1011.02 274.928 1011.87 274.928C1012.73 274.928 1012.81 273.607 1011.95 273.607Z" fill="#FF8F8F"/>
<path d="M1014.87 280.134C1014.02 280.134 1013.93 281.455 1014.79 281.455C1015.64 281.455 1015.72 280.134 1014.87 280.134Z" fill="#FF8F8F"/>
<path d="M996.191 376.042C995.086 376.042 994.982 377.761 996.087 377.761C997.192 377.761 997.296 376.042 996.191 376.042Z" fill="#FF8F8F"/>
<path d="M953.124 363.015C952.978 362.851 952.753 362.73 952.529 362.73H952.442C952.209 362.73 952.002 362.79 951.821 362.946C951.648 363.092 951.544 363.308 951.536 363.541C951.527 363.774 951.605 363.99 951.752 364.163C951.898 364.327 952.123 364.448 952.347 364.448H952.434C952.667 364.448 952.874 364.387 953.055 364.232C953.228 364.085 953.332 363.869 953.34 363.636C953.349 363.403 953.28 363.187 953.124 363.015Z" fill="#FF8F8F"/>
<path d="M946.721 371.13C945.53 371.13 945.418 372.977 946.609 372.977C947.8 372.977 947.921 371.13 946.721 371.13Z" fill="#FF8F8F"/>
<path d="M938.544 378.382C936.93 378.382 936.774 380.894 938.397 380.894C940.003 380.894 940.167 378.382 938.544 378.382Z" fill="#FF8F8F"/>
<path d="M928.234 383.562C927.44 383.562 926.749 384.106 926.697 384.926C926.654 385.686 927.267 386.463 928.062 386.463C928.856 386.463 929.546 385.919 929.598 385.099C929.65 384.348 929.028 383.562 928.234 383.562Z" fill="#FF8F8F"/>
<path d="M916.241 385.039C914.454 385.039 914.281 387.81 916.077 387.81C917.855 387.81 918.028 385.039 916.241 385.039Z" fill="#FF8F8F"/>
<path d="M905.72 379.038C905.659 378.762 905.539 378.52 905.357 378.313C905.081 378.002 904.684 377.804 904.261 377.786C903.846 377.76 903.423 377.907 903.113 378.184C902.81 378.451 902.586 378.866 902.586 379.28V379.392C902.595 379.53 902.603 379.677 902.62 379.815C902.681 380.092 902.802 380.333 902.983 380.54C903.259 380.851 903.656 381.05 904.08 381.067C904.494 381.093 904.917 380.946 905.228 380.67C905.53 380.402 905.754 379.988 905.754 379.573V379.461C905.737 379.323 905.728 379.185 905.72 379.038Z" fill="#FF8F8F"/>
<path d="M897.294 368.376C896.396 368.376 895.601 368.989 895.55 369.93C895.498 370.793 896.197 371.674 897.104 371.674C898.001 371.674 898.796 371.061 898.848 370.12C898.899 369.265 898.2 368.376 897.294 368.376Z" fill="#FF8F8F"/>
<path d="M894.826 358.033C893.963 358.033 893.203 358.62 893.151 359.527C893.099 360.356 893.773 361.202 894.645 361.202C895.508 361.202 896.268 360.615 896.32 359.708C896.363 358.888 895.689 358.033 894.826 358.033Z" fill="#FF8F8F"/>
<path d="M896.488 348.554C895.694 348.554 895.003 349.098 894.951 349.918C894.908 350.678 895.521 351.455 896.315 351.455C897.11 351.455 897.8 350.911 897.852 350.09C897.904 349.339 897.282 348.554 896.488 348.554Z" fill="#FF8F8F"/>
<path d="M903.165 341.017C902.924 340.741 902.535 340.533 902.164 340.533H902.052C901.922 340.542 901.793 340.551 901.663 340.559C901.413 340.611 901.188 340.723 900.998 340.896C900.713 341.155 900.532 341.518 900.515 341.898C900.489 342.277 900.627 342.666 900.877 342.951C901.119 343.227 901.508 343.434 901.879 343.434H901.991C902.121 343.426 902.25 343.417 902.38 343.408C902.63 343.357 902.854 343.244 903.044 343.072C903.329 342.813 903.511 342.45 903.528 342.07C903.554 341.69 903.416 341.31 903.165 341.017Z" fill="#FF8F8F"/>
<path d="M910.501 336.76C908.887 336.76 908.731 339.273 910.354 339.273C911.969 339.273 912.124 336.76 910.501 336.76Z" fill="#FF8F8F"/>
<path d="M919.05 337.339C917.608 337.339 917.47 339.584 918.921 339.584C920.354 339.584 920.5 337.339 919.05 337.339Z" fill="#FF8F8F"/>
<path d="M926.437 342.364C925.332 342.364 925.228 344.082 926.334 344.082C927.439 344.082 927.542 342.364 926.437 342.364Z" fill="#FF8F8F"/>
<path d="M892.733 353.734C891.965 353.734 891.896 354.925 892.664 354.925C893.432 354.925 893.501 353.734 892.733 353.734Z" fill="#FF8F8F"/>
<path d="M885.958 353.975C884.939 353.975 884.844 355.564 885.863 355.564C886.89 355.564 886.985 353.975 885.958 353.975Z" fill="#FF8F8F"/>
<path d="M878.031 354.666C876.754 354.666 876.633 356.643 877.919 356.643C879.188 356.643 879.318 354.666 878.031 354.666Z" fill="#FF8F8F"/>
<path d="M870.453 353.518C869.175 353.518 869.055 355.495 870.341 355.495C871.61 355.495 871.731 353.518 870.453 353.518Z" fill="#FF8F8F"/>
<path d="M862.348 350.099C860.992 350.099 860.854 352.214 862.227 352.214C863.582 352.214 863.712 350.099 862.348 350.099Z" fill="#FF8F8F"/>
<path d="M855.836 344.548C854.135 344.548 853.971 347.19 855.68 347.19C857.381 347.19 857.545 344.548 855.836 344.548Z" fill="#FF8F8F"/>
<path d="M851.277 338.108C851.052 337.857 850.707 337.667 850.362 337.667H850.275C850.154 337.676 850.042 337.684 849.921 337.693C849.697 337.745 849.49 337.849 849.317 337.995C849.058 338.228 848.894 338.556 848.877 338.91C848.859 339.256 848.98 339.61 849.205 339.869C849.429 340.119 849.775 340.309 850.12 340.309H850.206C850.327 340.3 850.439 340.292 850.56 340.283C850.785 340.231 850.992 340.128 851.164 339.981C851.423 339.748 851.588 339.42 851.605 339.074C851.631 338.721 851.51 338.367 851.277 338.108Z" fill="#FF8F8F"/>
<path d="M848.238 330.726C846.796 330.726 846.658 332.971 848.108 332.971C849.55 332.971 849.688 330.726 848.238 330.726Z" fill="#FF8F8F"/>
<path d="M847.882 324.285C846.44 324.285 846.302 326.53 847.753 326.53C849.194 326.53 849.341 324.285 847.882 324.285Z" fill="#FF8F8F"/>
<path d="M849.996 317.983C848.718 317.983 848.598 319.96 849.884 319.96C851.153 319.96 851.274 317.983 849.996 317.983Z" fill="#FF8F8F"/>
<path d="M854.836 313.615C853.73 313.615 853.627 315.333 854.732 315.333C855.846 315.333 855.949 313.615 854.836 313.615Z" fill="#FF8F8F"/>
<path d="M860.202 311.258C859.355 311.258 859.269 312.578 860.124 312.578C860.97 312.578 861.056 311.258 860.202 311.258Z" fill="#FF8F8F"/>
<path d="M866.646 311.344H866.559C866.378 311.344 866.214 311.387 866.085 311.508C865.955 311.62 865.877 311.793 865.86 311.966C865.843 312.311 866.119 312.665 866.482 312.665H866.568C866.749 312.665 866.913 312.622 867.043 312.501C867.172 312.389 867.25 312.216 867.267 312.043C867.285 311.698 867 311.344 866.646 311.344Z" fill="#FF8F8F"/>
<path d="M871.487 315.557C870.719 315.557 870.65 316.748 871.418 316.748C872.178 316.748 872.255 315.557 871.487 315.557Z" fill="#FF8F8F"/>
<path d="M895.136 270.629C894.031 270.629 893.928 272.347 895.033 272.347C896.138 272.347 896.25 270.629 895.136 270.629Z" fill="#FF8F8F"/>
<path d="M892.735 263.86C892.58 263.687 892.338 263.549 892.096 263.549H891.967C891.716 263.549 891.492 263.61 891.293 263.782C891.112 263.946 891 264.18 890.983 264.421C890.965 264.663 891.052 264.905 891.216 265.095C891.371 265.267 891.613 265.405 891.855 265.405H891.984C892.234 265.405 892.459 265.345 892.658 265.172C892.839 265.008 892.951 264.775 892.968 264.534C892.977 264.292 892.899 264.05 892.735 263.86Z" fill="#FF8F8F"/>
<path d="M886.418 258.326C885.14 258.326 885.019 260.303 886.306 260.303C887.575 260.312 887.696 258.326 886.418 258.326Z" fill="#FF8F8F"/>
<path d="M880.509 255.9C880.466 255.693 880.371 255.512 880.233 255.356C880.026 255.123 879.724 254.976 879.413 254.959C879.102 254.942 878.791 255.045 878.549 255.261C878.325 255.46 878.152 255.779 878.152 256.081V256.211C878.161 256.315 878.17 256.427 878.178 256.53C878.221 256.738 878.316 256.919 878.455 257.074C878.662 257.307 878.964 257.454 879.275 257.471C879.585 257.489 879.896 257.385 880.138 257.169C880.362 256.971 880.535 256.651 880.535 256.349V256.22C880.527 256.107 880.518 256.004 880.509 255.9Z" fill="#FF8F8F"/>
<path d="M872.006 255.218C870.478 255.218 870.331 257.592 871.868 257.592C873.396 257.601 873.543 255.218 872.006 255.218Z" fill="#FF8F8F"/>
<path d="M865.827 257.851C865.775 257.627 865.671 257.42 865.525 257.247C865.292 256.988 864.964 256.824 864.61 256.807C864.264 256.789 863.91 256.91 863.651 257.135C863.401 257.359 863.211 257.704 863.211 258.05V258.179L863.237 258.533C863.289 258.758 863.392 258.965 863.539 259.138C863.772 259.397 864.1 259.561 864.454 259.578C864.799 259.595 865.153 259.474 865.412 259.25C865.663 259.025 865.853 258.68 865.853 258.335V258.205L865.827 257.851Z" fill="#FF8F8F"/>
<path d="M858.125 263.161C856.424 263.161 856.26 265.803 857.97 265.803C859.67 265.803 859.834 263.161 858.125 263.161Z" fill="#FF8F8F"/>
<path d="M852.84 271.889C851.139 271.889 850.975 274.531 852.684 274.531C854.377 274.531 854.541 271.889 852.84 271.889Z" fill="#FF8F8F"/>
<path d="M851.12 283.329C849.333 283.329 849.16 286.1 850.956 286.1C852.743 286.1 852.916 283.329 851.12 283.329Z" fill="#FF8F8F"/>
<path d="M853.764 292.454C851.977 292.454 851.805 295.225 853.6 295.225C855.388 295.225 855.56 292.454 853.764 292.454Z" fill="#FF8F8F"/>
<path d="M858.255 301.847C856.64 301.847 856.485 304.36 858.108 304.36C859.723 304.351 859.878 301.847 858.255 301.847Z" fill="#FF8F8F"/>
<path d="M866.588 307.994C865.06 307.994 864.913 310.368 866.45 310.368C867.978 310.368 868.125 307.994 866.588 307.994Z" fill="#FF8F8F"/>
<path d="M875.047 313.019C873.691 313.019 873.553 315.134 874.926 315.134C876.281 315.134 876.411 313.019 875.047 313.019Z" fill="#FF8F8F"/>
<path d="M884.152 317.059C883.047 317.059 882.943 318.777 884.048 318.777C885.162 318.768 885.266 317.059 884.152 317.059Z" fill="#FF8F8F"/>
<path d="M1146 269.522C1146 239.963 1169.96 216 1199.52 216H1202.48C1232.04 216 1256 239.963 1256 269.522V269.522C1256 299.082 1232.04 323.045 1202.48 323.045H1199.52C1169.96 323.045 1146 299.082 1146 269.522V269.522Z" fill="url(#paint0_linear)"/>
<path d="M1219.6 252.715C1219.6 252.315 1219.75 252.115 1220.2 252.115H1228.05C1228.45 252.115 1228.65 252.265 1228.65 252.715V292.182C1228.65 292.582 1228.55 292.782 1228.05 292.782H1220.3C1219.8 292.782 1219.65 292.532 1219.65 292.132V252.715H1219.6ZM1219.05 241.361C1219.05 238.159 1221.3 236.259 1224.15 236.259C1227.2 236.259 1229.25 238.309 1229.25 241.361C1229.25 244.662 1227.1 246.463 1224.05 246.463C1221.15 246.463 1219.05 244.662 1219.05 241.361ZM1196.55 269.172C1195.15 263.62 1191.85 251.515 1190.6 245.662H1190.5C1189.45 251.515 1186.8 261.419 1184.7 269.172H1196.55ZM1182.65 277.276L1178.7 292.282C1178.6 292.682 1178.45 292.782 1177.95 292.782H1170.6C1170.1 292.782 1170 292.632 1170.1 292.032L1184.3 242.311C1184.55 241.411 1184.7 240.61 1184.8 238.159C1184.8 237.809 1184.95 237.659 1185.2 237.659H1195.7C1196.05 237.659 1196.2 237.759 1196.3 238.159L1212.2 292.132C1212.3 292.532 1212.2 292.782 1211.8 292.782H1203.5C1203.1 292.782 1202.85 292.682 1202.75 292.332L1198.65 277.276H1182.65Z" fill="#FF7F18"/>
<path d="M673 427.522C673 397.963 696.963 374 726.522 374H729.478C759.037 374 783 397.963 783 427.522V427.522C783 457.082 759.037 481.045 729.478 481.045H726.522C696.963 481.045 673 457.082 673 427.522V427.522Z" fill="url(#paint1_linear)"/>
<path d="M752.901 425.421C755.451 425.421 756.351 425.421 756.601 425.321C756.601 424.971 756.701 424.721 756.701 424.471C756.701 421.77 755.401 416.768 750.201 416.768C745.401 416.768 743.351 420.969 742.851 425.421H752.901ZM742.751 432.274C742.851 439.027 746.051 443.579 753.651 443.579C756.601 443.579 759.151 443.179 761.801 442.028C762.151 441.878 762.401 441.928 762.401 442.379V448.631C762.401 449.131 762.252 449.382 761.902 449.632C759.252 450.932 755.951 451.532 751.852 451.532C738.652 451.532 733.702 441.778 733.702 430.924C733.702 419.119 739.802 409.465 750.552 409.465C761.452 409.465 765.252 418.619 765.252 426.072C765.252 428.473 765.102 430.424 764.852 431.374C764.752 431.774 764.602 431.925 764.202 432.025C763.202 432.175 760.252 432.374 755.852 432.374H742.751V432.274ZM715.952 427.172C714.552 421.62 711.151 409.515 709.901 403.662H709.801C708.752 409.515 706.001 419.419 703.951 427.172H715.952ZM701.901 435.276L697.951 450.232C697.851 450.632 697.701 450.782 697.201 450.782H689.851C689.351 450.782 689.251 450.632 689.351 450.032L703.551 400.361C703.801 399.46 703.951 398.76 704.051 396.259C704.051 395.909 704.201 395.759 704.451 395.759H714.951C715.301 395.759 715.451 395.859 715.551 396.259L731.451 450.132C731.551 450.532 731.451 450.782 731.051 450.782H722.801C722.401 450.782 722.151 450.632 722.051 450.282L717.951 435.276L701.901 435.276Z" fill="#D8A1FF"/>
<circle cx="743" cy="231" r="55" fill="url(#paint2_linear)"/>
<path d="M718.643 262.462L713.32 202.665H771.812L766.483 262.452L742.53 269.103L718.643 262.462Z" fill="#E44D26"/>
<path d="M742.566 264.019L761.921 258.645L766.476 207.554H742.566V264.019Z" fill="#F16529"/>
<path d="M742.569 229.732H732.879L732.21 222.222H742.569V214.888H724.207L724.383 216.856L726.182 237.066H742.569V229.732ZM742.569 248.779L742.537 248.787L734.381 246.582L733.86 240.733H726.509L727.535 252.248L742.535 256.419L742.569 256.409V248.779Z" fill="#EBEBEB"/>
<path d="M742.543 229.732V237.066H751.56L750.71 246.577L742.543 248.785V256.415L757.555 252.248L757.664 251.009L759.385 231.702L759.564 229.732H757.591H742.543ZM742.543 214.888V222.222H760.231L760.377 220.574L760.711 216.856L760.886 214.888H742.543Z" fill="white"/>
<circle cx="1120" cy="465" r="55" fill="url(#paint3_linear)"/>
<path fill-rule="evenodd" clip-rule="evenodd" d="M1088.57 479.841L1093.4 455.576H1104.58C1109.41 455.876 1111.83 458.272 1111.83 462.466C1111.83 469.656 1106.09 473.85 1100.95 473.55H1095.52L1094.31 479.841H1088.57ZM1096.73 469.057L1098.24 460.07H1102.16C1104.28 460.07 1105.79 460.968 1105.79 462.766C1105.48 467.859 1103.07 468.757 1100.35 469.057H1096.73H1096.73ZM1110.7 473.55L1115.54 449.286H1121.28L1120.07 455.576H1125.5C1130.34 455.876 1132.15 458.272 1131.54 461.268L1129.43 473.55H1123.39L1125.5 462.466C1125.81 460.968 1125.81 460.07 1123.69 460.07H1119.16L1116.44 473.55H1110.7V473.55ZM1129.04 479.841L1133.88 455.576H1145.05C1149.88 455.876 1152.3 458.272 1152.3 462.466C1152.3 469.656 1146.56 473.85 1141.43 473.55H1135.99L1134.78 479.841H1129.04V479.841ZM1137.2 469.057L1138.71 460.07H1142.64C1144.75 460.07 1146.26 460.968 1146.26 462.766C1145.96 467.859 1143.54 468.757 1140.82 469.057H1137.2H1137.2Z" fill="#232531"/>
<circle cx="1346" cy="148" r="55" fill="url(#paint4_linear)"/>
<path d="M1349.3 112.396L1381.6 144.704C1383.47 146.564 1383.47 149.584 1381.6 151.446L1349.45 183.604C1347.58 185.465 1344.57 185.465 1342.71 183.604L1310.4 151.296C1308.53 149.435 1308.53 146.417 1310.4 144.554L1332.55 122.401L1335.85 119.105L1342.56 112.396C1344.42 110.535 1347.44 110.535 1349.3 112.396Z" fill="white"/>
<path d="M1381.6 144.704L1349.3 112.396C1347.44 110.535 1344.42 110.535 1342.56 112.396L1335.85 119.105L1344.36 127.616C1346.34 126.948 1348.6 127.396 1350.18 128.972C1351.76 130.559 1352.21 132.847 1351.52 134.831L1359.73 143.033C1361.71 142.35 1364 142.792 1365.59 144.379C1367.8 146.594 1367.8 150.182 1365.59 152.398C1363.37 154.614 1359.78 154.614 1357.56 152.398C1355.9 150.73 1355.49 148.283 1356.33 146.231L1348.68 138.581L1348.68 158.711C1349.24 158.985 1349.74 159.348 1350.18 159.784C1352.4 161.998 1352.4 165.587 1350.18 167.804C1347.96 170.019 1344.37 170.019 1342.16 167.804C1339.95 165.587 1339.95 161.998 1342.16 159.784C1342.69 159.253 1343.32 158.832 1344.02 158.546V138.229C1343.32 137.945 1342.69 137.524 1342.16 136.991C1340.48 135.315 1340.08 132.853 1340.94 130.792L1332.55 122.401L1310.4 144.554C1308.53 146.417 1308.53 149.435 1310.4 151.296L1342.71 183.604C1344.57 185.465 1347.58 185.465 1349.45 183.604L1381.6 151.446C1383.47 149.584 1383.47 146.564 1381.6 144.704" fill="#DE4C36"/>
<circle cx="606" cy="93" r="55" fill="url(#paint5_linear)"/>
<path d="M590.285 117.851L595.964 114.414C597.06 116.357 598.056 118 600.447 118C602.738 118 604.183 117.104 604.183 113.618V89.9069H611.157V113.716C611.157 120.939 606.923 124.226 600.746 124.226C595.167 124.226 591.929 121.337 590.285 117.851L590.285 117.851ZM614.944 117.104L620.622 113.816C622.117 116.257 624.06 118.051 627.496 118.051C630.386 118.051 632.229 116.606 632.229 114.613C632.229 112.222 630.336 111.375 627.148 109.981L625.405 109.233C620.374 107.092 617.036 104.402 617.036 98.7236C617.036 93.4932 621.021 89.5081 627.248 89.5081C631.681 89.5081 634.869 91.0525 637.16 95.0872L631.73 98.5743C630.535 96.4324 629.24 95.5857 627.247 95.5857C625.205 95.5857 623.91 96.8809 623.91 98.5743C623.91 100.666 625.205 101.514 628.194 102.809L629.937 103.556C635.865 106.096 639.202 108.686 639.202 114.514C639.202 120.791 634.271 124.227 627.646 124.227C621.17 124.227 616.986 121.139 614.944 117.104" fill="black"/>
<circle cx="905" cy="498" r="55" fill="url(#paint6_linear)"/>
<path d="M932.971 502.364C903.86 500.233 879.803 506.886 874.392 509.365C871.396 510.669 871.172 512.322 871.619 513.235C872.022 513.931 873.453 514.365 875.018 513.583C886.555 507.625 909.942 502.886 932.971 504.234C933.508 504.234 933.955 503.799 933.955 503.277C933.955 502.799 933.508 502.364 932.971 502.364V502.364ZM940.171 494.015C938.963 495.319 937.175 496.32 936.593 495.841C936.057 495.363 936.593 493.797 936.593 493.797C939.455 492.015 945 487.492 945 484.014C945 480.796 942.004 479.796 938.829 482.796C936.28 485.449 934.402 488.666 933.418 492.189C931.764 493.754 929.17 495.754 926.8 495.754C925.593 495.754 925.235 494.928 925.414 493.797C927.426 493.754 932.971 492.275 932.971 487.797C932.971 487.057 932.613 486.362 932.077 485.84C931.495 485.318 930.735 485.101 929.975 485.144C927.471 485.144 924.251 487.623 922.686 491.101C922.239 491.014 921.837 490.884 921.434 490.71C921.837 489.84 922.194 488.971 922.418 488.058C922.776 486.231 921.971 485.101 920.406 485.231C919.422 485.318 918.215 486.144 917.991 488.058C917.902 489.014 918.08 490.014 918.528 490.884C917.857 492.928 915.04 495.493 914.101 495.406C913.162 495.319 914.235 491.667 915.174 488.971C915.71 488.449 916.113 487.84 916.381 487.144C916.649 486.623 916.471 485.97 915.934 485.666C914.503 485.144 912.893 485.796 912.267 487.144C911.865 487.797 911.552 488.492 911.283 489.188C910.523 490.101 909.271 491.232 908.913 491.145C908.377 490.797 910.121 488.579 909.897 487.362C909.718 486.318 908.779 485.622 907.706 485.709C906.141 485.927 904.039 488.797 904.039 488.797C904.263 488.275 904.442 487.71 904.486 487.144C904.397 486.057 902.295 485.579 901.267 487.536C900.551 489.406 900.015 491.362 899.702 493.363C899.255 494.276 897.511 496.928 896.124 497.015C895.006 497.102 896.393 492.319 896.572 492.058C897.198 491.145 897.958 489.232 897.779 488.405C897.779 488.014 897.6 487.623 897.287 487.362C896.974 487.101 896.527 487.057 896.124 487.144C895.409 487.318 894.828 487.753 894.47 488.362C893.978 487.753 893.173 487.492 892.368 487.623C887.762 488.101 884.811 495.798 885.124 499.407C885.392 501.364 886.331 502.538 888.12 502.32C890.132 502.059 891.787 499.276 891.787 499.276C891.787 499.276 892.234 501.581 894.38 501.32C895.99 500.842 897.421 499.885 898.45 498.581C898.405 498.711 898.36 498.842 898.36 498.972C898.002 500.929 901.356 500.711 901.669 499.233C902.653 491.884 905.247 488.84 906.007 488.84C906.633 488.84 904.352 492.319 905.649 493.623C906.633 494.798 908.422 493.884 909.897 492.667C909.629 493.58 909.495 494.537 909.45 495.493C909.361 497.537 910.121 499.189 912.222 499.146C914.995 499.059 917.946 495.754 919.869 492.623C920.361 492.928 920.942 493.145 921.524 493.276C921.345 494.015 921.255 494.754 921.3 495.537C921.479 497.928 923.223 498.842 925.235 498.755C927.605 498.668 930.378 496.928 932.256 495.363C932.256 495.45 932.211 495.537 932.166 495.624C931.987 496.798 932.256 498.929 934 499.016C936.012 499.189 939.455 497.189 941.199 495.145C942.675 494.232 941.244 492.928 940.171 494.015V494.015ZM942.049 484.057C942.272 484.057 942.406 484.274 942.406 484.448C942.406 486.492 936.996 490.884 936.996 490.884C936.996 490.884 940.528 484.057 942.049 484.057V484.057ZM929.036 488.362C929.215 488.362 929.394 488.405 929.528 488.536C929.662 488.666 929.707 488.84 929.662 489.014C929.662 490.188 928.008 491.058 926.174 491.058C927.158 489.71 928.276 488.362 929.036 488.362ZM893.039 491.58C892.86 492.797 890.624 498.363 889.372 498.363C887.807 498.45 890.132 490.536 892.681 490.58C893.173 490.58 893.173 490.927 893.039 491.58V491.58ZM873.453 493.058C874.928 493.058 872.245 500.407 872.603 503.625C872.961 506.843 876.672 505.929 876.404 504.016C875.957 500.885 878.238 490.884 880.473 490.884C882.128 490.884 878.64 497.754 879.355 502.016C879.803 504.842 883.782 503.973 883.335 502.19C882.128 496.58 886.197 491.145 885.661 487.188C885.392 485.535 884.453 484.622 883.291 484.622C879.534 484.622 876.494 491.884 876.494 491.884C876.494 491.884 876.851 487.753 873.811 487.579C869.428 487.362 864.912 497.928 865.001 507.495C865.091 510.539 869.071 510.06 868.802 507.582C868.579 503.32 871.172 493.058 873.453 493.058V493.058Z" fill="white"/>
<path d="M1063 108.547C1063 78.974 1086.97 55 1116.55 55H1119.45C1149.03 55 1173 78.974 1173 108.547V108.547C1173 138.121 1149.03 162.095 1119.45 162.095H1116.55C1086.97 162.095 1063 138.121 1063 108.547V108.547Z" fill="url(#paint7_linear)"/>
<path d="M1138.9 98.038C1134.95 98.038 1133.6 100.04 1133.6 101.691C1133.6 103.493 1134.5 104.744 1139.8 107.496C1147.65 111.3 1150.1 114.953 1150.1 120.308C1150.1 128.315 1144 132.619 1135.75 132.619C1131.4 132.619 1127.65 131.718 1125.5 130.467C1125.15 130.317 1125.1 130.066 1125.1 129.666V122.309C1125.1 121.809 1125.35 121.659 1125.7 121.909C1128.85 123.961 1132.45 124.862 1135.75 124.862C1139.7 124.862 1141.35 123.21 1141.35 120.958C1141.35 119.157 1140.2 117.555 1135.15 114.953C1128.05 111.55 1125.1 108.097 1125.1 102.342C1125.1 95.8859 1130.15 90.5313 1138.9 90.5313C1143.2 90.5313 1146.2 91.182 1147.85 91.9326C1148.25 92.1828 1148.35 92.5831 1148.35 92.9333V99.7893C1148.35 100.19 1148.1 100.44 1147.6 100.29C1145.4 98.8888 1142.15 98.038 1138.9 98.038ZM1095.9 103.993C1097.05 104.093 1097.95 104.093 1099.95 104.093C1105.8 104.093 1111.3 102.042 1111.3 94.0846C1111.3 87.729 1107.35 84.526 1100.7 84.526C1098.7 84.526 1096.8 84.6261 1095.9 84.6761V103.993ZM1087 77.4197C1087 77.0694 1087.7 76.819 1088.1 76.819C1091.3 76.6689 1096.05 76.5688 1101 76.5688C1114.85 76.5688 1120.25 84.1756 1120.25 93.8842C1120.25 106.595 1111.05 112.05 1099.75 112.05C1097.85 112.05 1097.2 111.95 1095.85 111.95V131.167C1095.85 131.568 1095.7 131.768 1095.25 131.768H1087.6C1087.2 131.768 1087 131.618 1087 131.167L1087 77.4197Z" fill="#31C5F0"/>
<circle cx="561" cy="301" r="55" fill="url(#paint8_linear)"/>
<path d="M550.5 332.012C556.296 332.012 561 327.308 561 321.51V311.008H550.5C544.704 311.008 540 315.713 540 321.51C540 327.308 544.704 332.012 550.5 332.012Z" fill="#0ACF83"/>
<path d="M540 300.506C540 294.709 544.704 290.004 550.5 290.004H561V311.008H550.5C544.704 311.008 540 306.303 540 300.506Z" fill="#A259FF"/>
<path d="M540 279.502C540 273.705 544.704 269 550.5 269H561V290.004H550.5C544.704 290.004 540 285.299 540 279.502Z" fill="#F24E1E"/>
<path d="M561 269H571.5C577.296 269 582 273.705 582 279.502C582 285.299 577.296 290.004 571.5 290.004H561V269Z" fill="#FF7262"/>
<path d="M582 300.506C582 306.303 577.296 311.008 571.5 311.008C565.704 311.008 561 306.303 561 300.506C561 294.709 565.704 290.004 571.5 290.004C577.296 290.004 582 294.709 582 300.506Z" fill="#1ABCFE"/>
<circle cx="1302" cy="420" r="55" fill="url(#paint9_linear)"/>
<path d="M1292.48 419.189L1303.36 439.843C1303.56 440.148 1303.44 440.458 1303.13 440.458H1296.36C1295.93 440.458 1295.74 440.344 1295.54 439.961C1293.06 434.893 1290.53 429.825 1287.92 424.375H1287.84C1285.51 429.52 1282.94 434.934 1280.46 440.001C1280.26 440.307 1280.07 440.425 1279.76 440.425H1273.35C1272.96 440.425 1272.92 440.119 1273.12 439.887L1283.77 419.845L1273.47 399.575C1273.23 399.269 1273.47 399.037 1273.7 399.037H1280.39C1280.78 399.037 1280.93 399.114 1281.09 399.461C1283.53 404.528 1286.02 409.751 1288.36 414.855H1288.43C1290.69 409.787 1293.18 404.528 1295.59 399.498C1295.78 399.192 1295.9 399 1296.29 399H1302.55C1302.86 399 1302.98 399.232 1302.79 399.538L1292.48 419.189ZM1305.27 425.447C1305.27 416.502 1311.3 409.515 1320.86 409.515C1321.68 409.515 1322.11 409.515 1322.89 409.592V399.42C1322.89 399.188 1323.08 399.037 1323.27 399.037H1329.42C1329.73 399.037 1329.81 399.151 1329.81 399.343V434.587C1329.81 435.623 1329.81 436.927 1330 438.35C1330 438.582 1329.92 438.656 1329.69 438.774C1326.42 440.311 1323 441 1319.74 441C1311.3 441.033 1305.27 435.892 1305.27 425.447ZM1322.88 415.622C1322.34 415.389 1321.56 415.238 1320.63 415.238C1315.73 415.238 1312.31 418.961 1312.31 425.145C1312.31 432.21 1315.81 435.051 1320.2 435.051C1321.14 435.051 1322.15 434.937 1322.89 434.628V415.622H1322.88Z" fill="#FFD9F2"/>
<circle cx="873" cy="78" r="55" fill="url(#paint10_linear)"/>
<path d="M849.515 109.795L844.191 50.0635H902.683L897.353 109.785L873.401 116.427L849.515 109.795Z" fill="#1572B6"/>
<path d="M873.438 111.351L892.792 105.982L897.343 54.9473H873.438V111.351Z" fill="#33A9DC"/>
<path d="M873.438 76.5871H883.128L883.795 69.0864H873.438V61.7642H891.801L891.626 63.7302L889.826 83.9193H873.438V76.5871Z" fill="white"/>
<path d="M873.477 95.6128H873.444L865.289 93.4088L864.767 87.5669H857.422L858.449 99.0691L873.45 103.246H873.493V95.6128H873.477Z" fill="#EBEBEB"/>
<path d="M882.507 83.5985L881.625 93.4023L873.457 95.6063V103.239L888.468 99.0757L888.577 97.8366L889.852 83.5952H882.507V83.5985Z" fill="white"/>
<path d="M873.465 61.7642V69.0897H855.782L855.63 67.4442L855.296 63.7302L855.121 61.7642H873.465ZM873.438 76.5871V83.9127H865.376L865.234 82.2671L864.901 78.5531L864.726 76.5871H873.435H873.438Z" fill="#EBEBEB"/>
<defs>
<linearGradient id="paint0_linear" x1="1230.05" y1="230" x2="1153.05" y2="299" gradientUnits="userSpaceOnUse">
<stop stop-color="#423325" stop-opacity="0.98"/>
<stop offset="1" stop-color="#1C0A00"/>
</linearGradient>
<linearGradient id="paint1_linear" x1="750" y1="386.5" x2="687" y2="466" gradientUnits="userSpaceOnUse">
<stop stop-color="#442F55" stop-opacity="0.98"/>
<stop offset="1" stop-color="#12002C"/>
</linearGradient>
<linearGradient id="paint2_linear" x1="791.016" y1="204.373" x2="677.087" y2="286" gradientUnits="userSpaceOnUse">
<stop stop-color="#FFB7A7"/>
<stop offset="1" stop-color="#FF886D"/>
</linearGradient>
<linearGradient id="paint3_linear" x1="1165.83" y1="427.897" x2="1072.42" y2="497.738" gradientUnits="userSpaceOnUse">
<stop stop-color="#C0C8E9"/>
<stop offset="1" stop-color="#8993BE"/>
</linearGradient>
<linearGradient id="paint4_linear" x1="1394.02" y1="121.373" x2="1280.09" y2="203" gradientUnits="userSpaceOnUse">
<stop stop-color="#FFC6BA"/>
<stop offset="1" stop-color="#FF9E89"/>
</linearGradient>
<linearGradient id="paint5_linear" x1="654.016" y1="66.373" x2="540.087" y2="148" gradientUnits="userSpaceOnUse">
<stop stop-color="#FFF17D"/>
<stop offset="1" stop-color="#F7DF1E"/>
</linearGradient>
<linearGradient id="paint6_linear" x1="953.016" y1="471.373" x2="839.087" y2="553" gradientUnits="userSpaceOnUse">
<stop stop-color="#BDCCFF"/>
<stop offset="1" stop-color="#6D8DFF"/>
</linearGradient>
<linearGradient id="paint7_linear" x1="1143" y1="73.5" x2="1082" y2="145.5" gradientUnits="userSpaceOnUse">
<stop stop-color="#3F415C" stop-opacity="0.98"/>
<stop offset="1" stop-color="#0C0824"/>
</linearGradient>
<linearGradient id="paint8_linear" x1="522" y1="343" x2="589" y2="262" gradientUnits="userSpaceOnUse">
<stop stop-color="#BAC9FF"/>
<stop offset="1" stop-color="#E0DDFF"/>
</linearGradient>
<linearGradient id="paint9_linear" x1="1322" y1="379.5" x2="1266.5" y2="463" gradientUnits="userSpaceOnUse">
<stop stop-color="#490031"/>
<stop offset="1" stop-color="#2E001F"/>
</linearGradient>
<linearGradient id="paint10_linear" x1="921.016" y1="51.373" x2="807.087" y2="133" gradientUnits="userSpaceOnUse">
<stop stop-color="#BDCCFF"/>
<stop offset="1" stop-color="#6D8DFF"/>
</linearGradient>
</defs>
</svg>
