<svg width="1920" height="629" viewBox="0 0 1920 629" fill="none" xmlns="http://www.w3.org/2000/svg">
<g clip-path="url(#clip0)">
<path d="M-90 106.5V-173L1985.5 -153.5L2075.5 341C2075.5 341 1958.08 465.61 1854.5 505C1729.32 552.605 1647.12 421.021 1523.5 449.5C1419.16 473.536 1335.27 538.387 1268.5 590.5C1077.33 739.704 902.824 404.653 664.5 449.5C523.811 475.975 506.427 538.824 365.5 564C61.3476 618.336 -90 106.5 -90 106.5Z" fill="url(#paint0_linear)"/>
<path d="M553.904 194.696V298H533.184V254.044H488.932V298H468.212V194.696H488.932V237.172H533.184V194.696H553.904ZM584.806 206.24C581.155 206.24 578.097 205.105 575.63 202.836C573.262 200.468 572.078 197.557 572.078 194.104C572.078 190.651 573.262 187.789 575.63 185.52C578.097 183.152 581.155 181.968 584.806 181.968C588.457 181.968 591.466 183.152 593.834 185.52C596.301 187.789 597.534 190.651 597.534 194.104C597.534 197.557 596.301 200.468 593.834 202.836C591.466 205.105 588.457 206.24 584.806 206.24ZM595.018 216.008V298H574.298V216.008H595.018ZM638.133 276.244L620.817 317.832H607.497L617.117 276.244H638.133ZM709.053 194.696V298H688.333V194.696H709.053ZM733.669 194.696H755.425L739.441 231.992H725.233L733.669 194.696ZM872.106 214.824C882.17 214.824 890.261 217.932 896.378 224.148C902.594 230.265 905.702 238.849 905.702 249.9V298H884.982V252.712C884.982 246.299 883.354 241.415 880.098 238.06C876.842 234.607 872.402 232.88 866.778 232.88C861.154 232.88 856.665 234.607 853.31 238.06C850.054 241.415 848.426 246.299 848.426 252.712V298H827.706V252.712C827.706 246.299 826.078 241.415 822.822 238.06C819.566 234.607 815.126 232.88 809.502 232.88C803.78 232.88 799.241 234.607 795.886 238.06C792.63 241.415 791.002 246.299 791.002 252.712V298H770.282V216.008H791.002V225.924C793.666 222.471 797.07 219.757 801.214 217.784C805.457 215.811 810.094 214.824 815.126 214.824C821.54 214.824 827.262 216.205 832.294 218.968C837.326 221.632 841.224 225.48 843.986 230.512C846.65 225.776 850.498 221.977 855.53 219.116C860.661 216.255 866.186 214.824 872.106 214.824ZM1073.26 194.696V298H1052.54V230.808L1024.86 298H1009.17L981.35 230.808V298H960.63V194.696H984.162L1017.02 271.508L1049.87 194.696H1073.26ZM1088.42 256.708C1088.42 248.42 1090.04 241.069 1093.3 234.656C1096.65 228.243 1101.14 223.309 1106.77 219.856C1112.49 216.403 1118.85 214.676 1125.86 214.676C1131.98 214.676 1137.3 215.909 1141.84 218.376C1146.48 220.843 1150.18 223.951 1152.94 227.7V216.008H1173.81V298H1152.94V286.012C1150.28 289.86 1146.58 293.067 1141.84 295.632C1137.21 298.099 1131.83 299.332 1125.71 299.332C1118.8 299.332 1112.49 297.556 1106.77 294.004C1101.14 290.452 1096.65 285.469 1093.3 279.056C1090.04 272.544 1088.42 265.095 1088.42 256.708ZM1152.94 257.004C1152.94 251.972 1151.96 247.68 1149.98 244.128C1148.01 240.477 1145.35 237.715 1141.99 235.84C1138.64 233.867 1135.04 232.88 1131.19 232.88C1127.34 232.88 1123.79 233.817 1120.53 235.692C1117.28 237.567 1114.61 240.329 1112.54 243.98C1110.57 247.532 1109.58 251.775 1109.58 256.708C1109.58 261.641 1110.57 265.983 1112.54 269.732C1114.61 273.383 1117.28 276.195 1120.53 278.168C1123.89 280.141 1127.44 281.128 1131.19 281.128C1135.04 281.128 1138.64 280.191 1141.99 278.316C1145.35 276.343 1148.01 273.58 1149.98 270.028C1151.96 266.377 1152.94 262.036 1152.94 257.004ZM1239.48 214.824C1249.25 214.824 1257.15 217.932 1263.16 224.148C1269.18 230.265 1272.19 238.849 1272.19 249.9V298H1251.47V252.712C1251.47 246.2 1249.84 241.217 1246.59 237.764C1243.33 234.212 1238.89 232.436 1233.27 232.436C1227.55 232.436 1223.01 234.212 1219.65 237.764C1216.4 241.217 1214.77 246.2 1214.77 252.712V298H1194.05V216.008H1214.77V226.22C1217.53 222.668 1221.03 219.905 1225.28 217.932C1229.62 215.86 1234.35 214.824 1239.48 214.824ZM1286.57 256.708C1286.57 248.42 1288.2 241.069 1291.45 234.656C1294.81 228.243 1299.3 223.309 1304.92 219.856C1310.64 216.403 1317.01 214.676 1324.01 214.676C1330.13 214.676 1335.46 215.909 1340 218.376C1344.63 220.843 1348.33 223.951 1351.1 227.7V216.008H1371.96V298H1351.1V286.012C1348.43 289.86 1344.73 293.067 1340 295.632C1335.36 298.099 1329.98 299.332 1323.86 299.332C1316.96 299.332 1310.64 297.556 1304.92 294.004C1299.3 290.452 1294.81 285.469 1291.45 279.056C1288.2 272.544 1286.57 265.095 1286.57 256.708ZM1351.1 257.004C1351.1 251.972 1350.11 247.68 1348.14 244.128C1346.16 240.477 1343.5 237.715 1340.14 235.84C1336.79 233.867 1333.19 232.88 1329.34 232.88C1325.49 232.88 1321.94 233.817 1318.68 235.692C1315.43 237.567 1312.76 240.329 1310.69 243.98C1308.72 247.532 1307.73 251.775 1307.73 256.708C1307.73 261.641 1308.72 265.983 1310.69 269.732C1312.76 273.383 1315.43 276.195 1318.68 278.168C1322.04 280.141 1325.59 281.128 1329.34 281.128C1333.19 281.128 1336.79 280.191 1340.14 278.316C1343.5 276.343 1346.16 273.58 1348.14 270.028C1350.11 266.377 1351.1 262.036 1351.1 257.004ZM1423.58 299.332C1416.87 299.332 1410.85 298.148 1405.52 295.78C1400.19 293.313 1395.95 290.008 1392.79 285.864C1389.73 281.72 1388.06 277.132 1387.76 272.1H1408.63C1409.02 275.257 1410.55 277.872 1413.22 279.944C1415.98 282.016 1419.38 283.052 1423.43 283.052C1427.37 283.052 1430.43 282.263 1432.6 280.684C1434.87 279.105 1436.01 277.083 1436.01 274.616C1436.01 271.952 1434.63 269.979 1431.86 268.696C1429.2 267.315 1424.91 265.835 1418.99 264.256C1412.87 262.776 1407.84 261.247 1403.89 259.668C1400.04 258.089 1396.69 255.672 1393.83 252.416C1391.07 249.16 1389.68 244.769 1389.68 239.244C1389.68 234.705 1390.97 230.561 1393.53 226.812C1396.2 223.063 1399.95 220.103 1404.78 217.932C1409.71 215.761 1415.49 214.676 1422.1 214.676C1431.86 214.676 1439.66 217.143 1445.48 222.076C1451.3 226.911 1454.51 233.472 1455.1 241.76H1435.27C1434.97 238.504 1433.59 235.939 1431.12 234.064C1428.76 232.091 1425.55 231.104 1421.5 231.104C1417.75 231.104 1414.84 231.795 1412.77 233.176C1410.8 234.557 1409.81 236.481 1409.81 238.948C1409.81 241.711 1411.19 243.832 1413.96 245.312C1416.72 246.693 1421.01 248.124 1426.83 249.604C1432.75 251.084 1437.64 252.613 1441.48 254.192C1445.33 255.771 1448.64 258.237 1451.4 261.592C1454.26 264.848 1455.74 269.189 1455.84 274.616C1455.84 279.352 1454.51 283.595 1451.84 287.344C1449.28 291.093 1445.53 294.053 1440.6 296.224C1435.76 298.296 1430.09 299.332 1423.58 299.332Z" fill="white"/>
<circle cx="212.292" cy="335.292" r="104.292" fill="url(#paint1_radial)" fill-opacity="0.5"/>
<path d="M177.618 417.901C159.381 411.206 144.502 397.325 135.732 379.99C130.53 369.706 126.127 356.925 126.256 343.257C126.94 347.668 127.825 351.768 128.861 355.573C138.062 389.356 169.24 417.751 204.059 421.441C208.828 421.946 213.963 422.08 219.465 421.717C203.976 425.021 189.299 422.189 177.618 417.901Z" fill="white" fill-opacity="0.25"/>
<circle cx="1727" cy="158" r="98" fill="url(#paint2_radial)" fill-opacity="0.5"/>
<path d="M1696.08 236.216C1677.72 229.88 1662.75 215.911 1654.28 198.425C1649.74 189.046 1646.04 177.638 1646.16 165.485C1646.62 168.459 1647.18 171.282 1647.81 173.96C1655.93 208.02 1687.51 236.922 1722.45 239.225C1726.01 239.46 1729.78 239.473 1733.74 239.211C1719.91 242.162 1706.77 239.905 1696.08 236.216Z" fill="white" fill-opacity="0.25"/>
<circle cx="1158" cy="486.6" r="65.9988" fill="url(#paint3_radial)" fill-opacity="0.5"/>
<path d="M1146.4 541.611C1127.22 538.552 1111.12 523.572 1105.55 504.962C1104.3 500.79 1103.51 496.297 1103.55 491.641C1107.76 518.734 1133.34 542.372 1160.74 541.385C1161.33 541.364 1161.93 541.333 1162.54 541.293C1156.9 542.495 1151.44 542.414 1146.4 541.611Z" fill="white" fill-opacity="0.25"/>
<circle cx="643.5" cy="70.4999" r="35.4999" fill="url(#paint4_radial)" fill-opacity="0.5"/>
<path d="M644.503 100.176C629.371 102.37 614.07 88.5017 614.214 73.2114C616.474 87.784 630.235 100.499 644.973 99.9679C645.292 99.9564 645.615 99.94 645.941 99.9185C645.46 100.021 644.98 100.107 644.503 100.176Z" fill="white" fill-opacity="0.25"/>
</g>
<defs>
<linearGradient id="paint0_linear" x1="5" y1="7.50003" x2="1907.5" y2="473" gradientUnits="userSpaceOnUse">
<stop stop-color="#6360FF"/>
<stop offset="1" stop-color="#8995FF"/>
</linearGradient>
<radialGradient id="paint1_radial" cx="0" cy="0" r="1" gradientUnits="userSpaceOnUse" gradientTransform="translate(185.598 370.677) rotate(-46.1691) scale(193.622)">
<stop stop-color="white" stop-opacity="0.52"/>
<stop offset="0.59375" stop-color="white" stop-opacity="0.1"/>
</radialGradient>
<radialGradient id="paint2_radial" cx="0" cy="0" r="1" gradientUnits="userSpaceOnUse" gradientTransform="translate(1696.66 197.662) rotate(-46.3635) scale(190.21)">
<stop stop-color="white" stop-opacity="0.31"/>
<stop offset="0.59375" stop-color="white" stop-opacity="0.1"/>
</radialGradient>
<radialGradient id="paint3_radial" cx="0" cy="0" r="1" gradientUnits="userSpaceOnUse" gradientTransform="translate(1137.56 513.31) rotate(-46.3635) scale(128.099)">
<stop stop-color="white" stop-opacity="0.31"/>
<stop offset="0.59375" stop-color="white" stop-opacity="0.1"/>
</radialGradient>
<radialGradient id="paint4_radial" cx="0" cy="0" r="1" gradientUnits="userSpaceOnUse" gradientTransform="translate(632.508 84.8671) rotate(-46.3635) scale(68.9026)">
<stop stop-color="white" stop-opacity="0.31"/>
<stop offset="0.59375" stop-color="white" stop-opacity="0.1"/>
</radialGradient>
<clipPath id="clip0">
<rect width="1920" height="629" fill="white"/>
</clipPath>
</defs>
</svg>
