<svg width="60" height="60" viewBox="0 0 60 60" fill="none" xmlns="http://www.w3.org/2000/svg">
<circle cx="30" cy="30" r="30" fill="white"/>
<path d="M30.4633 41.4245L23.6371 41.3002C21.4269 41.2569 19.2112 41.3434 17.0443 40.8947C13.748 40.2245 13.5145 36.938 13.2701 34.1813C12.9335 30.3057 13.0638 26.3597 13.6992 22.5165C14.0579 20.36 15.4695 19.0732 17.6525 18.9332C25.0219 18.425 32.4402 18.4853 39.7932 18.7224C40.5697 18.7441 41.3516 18.8629 42.1174 18.9981C45.8972 19.6576 45.9894 23.3819 46.2344 26.517C46.4788 29.6845 46.3756 32.8683 45.9086 36.0142C45.5339 38.619 44.817 40.8033 41.7915 41.0142C38.0009 41.2899 34.2972 41.5119 30.4958 41.4412C30.496 41.4245 30.4742 41.4245 30.4633 41.4245ZM26.4502 34.83C29.3067 33.1975 32.1088 31.5921 34.9491 29.9706C32.0872 28.338 29.2904 26.7327 26.4502 25.1111V34.83Z" fill="#FF0000"/>
</svg>
