<svg width="70" height="60" viewBox="0 0 70 60" fill="none" xmlns="http://www.w3.org/2000/svg">
<circle cx="35" cy="30" r="20" fill="#FFDEDE"/>
<path d="M35.3089 37.6162L30.758 37.5334C29.2846 37.5045 27.8075 37.5622 26.3629 37.2631C24.1654 36.8162 24.0097 34.6253 23.8468 32.7874C23.6223 30.2037 23.7092 27.5731 24.1328 25.0109C24.3719 23.5733 25.313 22.7154 26.7684 22.6221C31.6812 22.2833 36.6268 22.3234 41.5288 22.4815C42.0465 22.496 42.5678 22.5752 43.0783 22.6653C45.5981 23.105 45.6596 25.5878 45.8229 27.6779C45.9858 29.7896 45.9171 31.9121 45.6057 34.0094C45.3559 35.7459 44.878 37.2021 42.861 37.3427C40.3339 37.5265 37.8648 37.6745 35.3306 37.6274C35.3307 37.6162 35.3161 37.6162 35.3089 37.6162ZM32.6334 33.2199C34.5378 32.1316 36.4059 31.0613 38.2994 29.9803C36.3914 28.8919 34.5269 27.8217 32.6334 26.7407V33.2199Z" fill="#FF0000"/>
</svg>
